<?xml version="1.0" encoding="UTF-8"?>
<svg width="144px" height="144px" viewBox="0 0 144 144" version="1.1" xmlns="http://www.w3.org/2000/svg" xmlns:xlink="http://www.w3.org/1999/xlink">
    <!-- Generator: sketchtool 41 (35326) - http://www.bohemiancoding.com/sketch -->
    <title>E2677817-D23D-4C0C-B5AA-461A72F27853</title>
    <desc>Created with sketchtool.</desc>
    <defs></defs>
    <g id="Page-1" stroke="none" stroke-width="1" fill="none" fill-rule="evenodd">
        <g id="layout.404.1280" transform="translate(-567.000000, -244.000000)" fill="#FF6600">
            <g id="error-505" transform="translate(567.000000, 244.000000)">
                <path d="M72,140 C34.505,140 4,109.495 4,72 C4,34.505 34.505,4 72,4 C109.495,4 140,34.505 140,72 C140,109.495 109.495,140 72,140 M72,0 C32.299,0 0,32.299 0,72 C0,111.701 32.299,144 72,144 C111.701,144 144,111.701 144,72 C144,32.299 111.701,0 72,0" id="Fill-1"></path>
                <path d="M95.3462,92 L43.6922,92 C36.8632,92 31.3072,86.444 31.3072,79.615 C31.3072,72.786 36.8632,67.23 43.6922,67.23 C44.1122,67.23 44.5552,67.255 45.0112,67.303 L46.9612,67.508 L47.2042,65.562 C48.6692,53.84 58.6832,45 70.5002,45 C80.0392,45 88.5632,50.7 92.2152,59.521 L92.7662,60.854 L94.3372,60.742 C94.6712,60.718 95.0062,60.692 95.3462,60.692 C103.9772,60.692 111.0002,67.715 111.0002,76.346 C111.0002,84.978 103.9772,92 95.3462,92 M95.3462,56.692 L95.3342,56.692 C90.7852,47.113 81.1882,41 70.5002,41 C57.2942,41 46.0112,50.435 43.5272,63.231 C34.5682,63.32 27.3072,70.636 27.3072,79.615 C27.3072,88.649 34.6582,96 43.6922,96 L95.3462,96 C106.1832,96 115.0002,87.184 115.0002,76.346 C115.0002,65.509 106.1832,56.692 95.3462,56.692" id="Fill-3"></path>
                <polygon id="Fill-5" points="78.519 63.1191 72 69.6391 65.481 63.1191 62.653 65.9471 69.172 72.4671 62.653 78.9861 65.481 81.8141 72 75.2951 78.519 81.8141 81.347 78.9861 74.828 72.4671 81.347 65.9471"></polygon>
            </g>
        </g>
    </g>
</svg>