<?xml version="1.0" encoding="UTF-8" standalone="no"?>
<svg width="144px" height="144px" viewBox="0 0 144 144" version="1.1" xmlns="http://www.w3.org/2000/svg" xmlns:xlink="http://www.w3.org/1999/xlink">
    <!-- Generator: sketchtool 39.1 (31720) - http://www.bohemiancoding.com/sketch -->
    <title>2B771508-E593-42D6-AB74-C44C30EA6E05</title>
    <desc>Created with sketchtool.</desc>
    <defs></defs>
    <g id="Page-1" stroke="none" stroke-width="1" fill="none" fill-rule="evenodd">
        <g id="tarjetas.pagar-6.1280" transform="translate(-687.000000, -126.000000)" fill="#FF6600">
            <g id="Group" transform="translate(503.000000, 126.000000)">
                <path d="M256,144 C216.299,144 184,111.701 184,72 C184,32.299 216.299,0 256,0 C295.701,0 328,32.299 328,72 C328,111.701 295.701,144 256,144 Z M256,4 C218.505,4 188,34.505 188,72 C188,109.495 218.505,140 256,140 C293.495,140 324,109.495 324,72 C324,34.505 293.495,4 256,4 Z M254.004,113 L258.004,113 L258.004,107 L254.004,107 L254.004,113 Z M254.004,98 L258.004,98 L258.004,30 L254.004,30 L254.004,98 Z" id="error"></path>
            </g>
        </g>
    </g>
</svg>