<svg xmlns="http://www.w3.org/2000/svg" width="92" height="71" viewBox="0 0 92 71">
    <g fill="none" fill-rule="evenodd">
        <g opacity=".3">
            <path stroke="#BEBCBC" stroke-width="3" d="M75.335 1.5c5.057 0 7.146.404 9.307 1.56a10.313 10.313 0 0 1 4.299 4.298c1.155 2.16 1.559 4.25 1.559 9.307v11.62c0 5.056-.404 7.146-1.56 9.307a10.313 10.313 0 0 1-4.298 4.299c-2.16 1.155-4.25 1.559-9.307 1.559H42.899c-5.057 0-7.147-.404-9.307-1.56a10.313 10.313 0 0 1-4.3-4.298c-1.155-2.16-1.558-4.25-1.558-9.308V16.665c0-5.057.403-7.146 1.559-9.307a10.313 10.313 0 0 1 4.299-4.299c2.16-1.155 4.25-1.559 9.307-1.559h32.436z"/>
            <path fill="#FFF" d="M62.727 21.3H30.19v33.534h32.537z"/>
        </g>
        <path fill="#FFF" d="M5.465 7.361h76.446v48.598H5.465z"/>
        <g transform="translate(0 10.013)">
            <rect width="71.743" height="46.259" x="1.5" y="1.5" stroke="#BEBCBC" stroke-width="3" rx="13"/>
            <path fill="#FFF" d="M41.699 24.238h36.978v36.749H41.699z"/>
            <g fill="#F60">
                <path d="M63.334 25.02c-9.342 0-16.915 7.701-16.915 17.201s7.573 17.202 16.915 17.202c9.338-.012 16.905-7.706 16.916-17.202 0-9.5-7.573-17.2-16.916-17.2zm0 32.253c-8.174 0-14.8-6.739-14.8-15.052 0-8.312 6.626-15.05 14.8-15.05 8.172.008 14.793 6.742 14.802 15.05 0 8.313-6.627 15.052-14.802 15.052z"/>
                <path d="M72.466 35.185L59.514 48.256l-4.524-4.564-1.49 1.503 5.269 5.316a1.046 1.046 0 0 0 1.49 0L73.956 36.69l-1.49-1.504z"/>
            </g>
            <path fill="#E3E2E2" d="M2.36 12.51h70.022v7.819H2.36z"/>
            <rect width="14.162" height="8.601" x="7.868" y="33.621" fill="#D8D8D8" rx="4.3"/>
        </g>
    </g>
</svg>
