<svg xmlns="http://www.w3.org/2000/svg" xmlns:xlink="http://www.w3.org/1999/xlink" width="97" height="67" viewBox="0 0 97 67">
    <defs>
        <path id="a" d="M.01.006h78.506v66.985H.009z"/>
    </defs>
    <g fill="none" fill-rule="evenodd">
        <path fill="#D1D1D1" d="M51.924 52.613l-10.687 4.523a.857.857 0 0 1-1.124-.459L38.11 51.91a.863.863 0 0 1 .457-1.128l10.687-4.522a.857.857 0 0 1 1.124.459l2.004 4.766a.863.863 0 0 1-.457 1.128zm.613-6.809a3.196 3.196 0 0 0-4.194-1.712l-10.687 4.523a3.22 3.22 0 0 0-1.706 4.209l2.004 4.767a3.196 3.196 0 0 0 2.95 1.965c.429 0 .847-.086 1.244-.254l10.687-4.522a3.22 3.22 0 0 0 1.706-4.209l-2.004-4.767zM47.32 24.506c2.8 0 5.166 1.467 5.166 3.204s-2.365 3.204-5.165 3.204-5.166-1.467-5.166-3.204 2.365-3.204 5.166-3.204zm-5.141 7.119c1.388.942 3.214 1.461 5.142 1.461 1.927 0 3.754-.519 5.142-1.461 1.502-1.02 2.33-2.41 2.33-3.915s-.828-2.895-2.33-3.915c-1.388-.943-3.215-1.462-5.142-1.462-1.928 0-3.754.52-5.142 1.462-1.503 1.02-2.33 2.41-2.33 3.915 0 1.504.827 2.895 2.33 3.915z"/>
        <path fill="#F60" d="M24.94 35.216l1.952-2.645a1.32 1.32 0 0 1 1.18-.522l3.279.331c.463.047.868.34 1.057.763l3.392 7.605c.141.316.15.668.025.991a1.287 1.287 0 0 1-.685.718l-5.231 2.314a1.303 1.303 0 0 1-1.716-.658L24.8 36.508a1.293 1.293 0 0 1 .14-1.292zm1.175 9.817a3.58 3.58 0 0 0 4.717 1.808l5.231-2.314a3.543 3.543 0 0 0 1.885-1.974 3.522 3.522 0 0 0-.07-2.724l-3.392-7.605a3.581 3.581 0 0 0-2.906-2.097c-1.198-.12-2.436-.35-3.64-.35-1.133 0-2.21.544-2.88 1.453l-1.952 2.645a3.555 3.555 0 0 0-.386 3.553l3.393 7.605z"/>
        <g>
            <mask id="b" fill="#fff">
                <use xlink:href="#a"/>
            </mask>
            <path fill="#F60" d="M29.412 34.098a1.438 1.438 0 1 1 0 2.875 1.438 1.438 0 0 1 0-2.875" mask="url(#b)"/>
            <path fill="#BEBCBC" d="M13.83 12.47h3.735c.456 0 .827.372.827.828v6.471c0 .483.32.932.776 1.091.737.257 1.534-.312 1.534-1.09v-5.607h37.111v48.835h-37.11v-38.61a1.155 1.155 0 0 0-2.31 0v39.475a.829.829 0 0 1-.828.828H13.83a.829.829 0 0 1-.828-.828V13.298c0-.456.371-.827.828-.827zm18.918-.616V8.489c0-.007.008-.015.015-.015h12.99c.007 0 .015.008.015.015v3.365h-13.02zm-6.16-3.365a6.181 6.181 0 0 1 6.175-6.173h12.99a6.181 6.181 0 0 1 6.174 6.173v3.365h-3.85V8.489a2.327 2.327 0 0 0-2.325-2.324H32.763a2.327 2.327 0 0 0-2.324 2.324v3.365h-3.85V8.489zm34.363 3.982h3.734c.456 0 .828.37.828.827v50.565a.829.829 0 0 1-.828.827h-3.734a.828.828 0 0 1-.828-.827V13.298c0-.456.372-.827.828-.827zM7.849 65.307h3.2A3.139 3.139 0 0 0 13.83 67h3.734a3.14 3.14 0 0 0 2.782-1.693H58.17A3.14 3.14 0 0 0 60.95 67h3.734a3.139 3.139 0 0 0 2.782-1.693h3.2c4.328 0 7.849-3.52 7.849-7.847V29.315a1.155 1.155 0 0 0-2.31 0V57.46a5.545 5.545 0 0 1-5.54 5.538h-2.843V14.163h2.843a5.545 5.545 0 0 1 5.54 5.538v4.995a1.155 1.155 0 0 0 2.31 0v-4.995c0-4.327-3.521-7.847-7.85-7.847h-3.199a3.139 3.139 0 0 0-2.782-1.693h-3.734a3.139 3.139 0 0 0-2.782 1.693h-3.932V8.489c0-4.677-3.806-8.483-8.485-8.483H32.763c-4.678 0-8.484 3.806-8.484 8.483v3.365h-3.932a3.139 3.139 0 0 0-2.782-1.693H13.83a3.139 3.139 0 0 0-2.783 1.693H7.85C3.521 11.854 0 15.374 0 19.7v28.242a1.155 1.155 0 0 0 2.31 0V19.701a5.545 5.545 0 0 1 5.54-5.538h2.843v48.835H7.849a5.545 5.545 0 0 1-5.54-5.538v-4.898a1.155 1.155 0 0 0-2.309 0v4.898c0 4.327 3.521 7.847 7.85 7.847z" mask="url(#b)"/>
        </g>
        <path stroke="#F1EDED" stroke-width="3" d="M84.383 52.179C91.461 53.994 95 51.127 95 43.579V12.674c-1.43-5.472-4.968-8.207-10.617-8.207h-20.75"/>
    </g>
</svg>
