<svg xmlns="http://www.w3.org/2000/svg" width="71" height="75" viewBox="0 0 71 75">
    <g fill="none" fill-rule="evenodd" transform="translate(1 1)">
        <g fill-rule="nonzero" stroke-width=".981">
            <path fill="#BEBCBC" stroke="#BEBCBC" d="M6.579 72.72h43.945a6.7 6.7 0 0 0 4.84-2.047 6.202 6.202 0 0 0 1.717-4.817L54.29 32.492c-.293-3.284-3.137-5.811-6.558-5.828H9.371c-3.421.017-6.265 2.544-6.558 5.828L.021 65.856a6.203 6.203 0 0 0 1.723 4.81 6.7 6.7 0 0 0 4.835 2.042v.012zM47.73 28.521c2.43.01 4.449 1.805 4.656 4.137l2.792 33.364a4.405 4.405 0 0 1-1.222 3.415 4.758 4.758 0 0 1-3.433 1.45H6.579a4.758 4.758 0 0 1-3.433-1.45 4.405 4.405 0 0 1-1.223-3.415l2.792-33.364c.208-2.332 2.227-4.126 4.656-4.137h38.36z"/>
            <path fill="#BEBCBC" stroke="#BEBCBC" d="M16.673 26.664h23.775V25.38c.018-9.985-5.322-18.107-11.861-18.107-6.54 0-11.932 8.122-11.932 18.113l.018 1.28zm22.04-1.928H18.408C18.623 16.113 23.095 9.2 28.587 9.2c5.49 0 9.899 6.913 10.126 15.536z"/>
            <path fill="#ECECEC" stroke="#ECECEC" d="M59.165 65.442h3.197c1.85.006 3.617-.731 4.875-2.032 1.257-1.301 1.889-3.047 1.742-4.815l-2.826-33.373c-.294-3.285-3.153-5.813-6.592-5.83H46.166c-.53 0-.96.412-.96.92 0 .507.43.92.96.92h13.389c2.441.01 4.472 1.804 4.68 4.137l2.826 33.373a4.393 4.393 0 0 1-1.23 3.416 4.795 4.795 0 0 1-3.45 1.451h-3.197c-.53 0-.96.412-.96.92s.43.92.96.92l-.02-.007zM53.81 19.392c.5 0 .907-.424.914-.95v-.329C54.754 8.122 49.169 0 42.304 0c-2.295.032-4.51.897-6.273 2.448a1 1 0 0 0-.14 1.356.882.882 0 0 0 1.285.148 7.952 7.952 0 0 1 5.129-2.024c5.86 0 10.622 7.26 10.622 16.179v.302c-.01.527.384.966.883.983z"/>
        </g>
        <rect width="28.214" height="10.273" x="13" y="50.443" stroke="#F60" stroke-width="3" rx="5.136"/>
    </g>
</svg>
