<?xml version="1.0" encoding="UTF-8"?>
<svg width="148px" height="48px" viewBox="0 0 148 48" version="1.1" xmlns="http://www.w3.org/2000/svg" xmlns:xlink="http://www.w3.org/1999/xlink">
    <!-- Generator: sketchtool 40.1 (33804) - http://www.bohemiancoding.com/sketch -->
    <title>D37D5D3A-9A90-445B-920F-7D04122DEDE7</title>
    <desc>Created with sketchtool.</desc>
    <defs>
        <polygon id="path-1" points="16.1212873 36.171236 16.1212873 0.0364044944 8.17988614 0.0364044944 0.238484997 0.0364044944 0.238484997 36.171236 16.1212873 36.171236"></polygon>
    </defs>
    <g id="Page-1" stroke="none" stroke-width="1" fill="none" fill-rule="evenodd">
        <g id="QUIERO_sin-adhesion" transform="translate(-763.000000, -208.000000)">
            <g id="Group" transform="translate(444.000000, 208.000000)">
                <g id="Group-3" transform="translate(162.000000, 0.000000)">
                    <g id="logo-quiero" transform="translate(157.000000, 0.000000)">
                        <path d="M137.989606,36.0900944 C137.842717,36.0900944 137.697989,36.0561169 137.570541,35.9924764 C137.330227,35.8562966 137.153367,35.6397573 137.098014,35.3846562 C135.047245,26.8897348 131.828117,10.0395775 131.783565,8.42483596 C131.736582,6.34681348 132.513147,4.38339775 133.968532,2.89593708 C135.391785,1.42573483 137.37046,0.584116854 139.406648,0.584116854 C141.517091,0.584116854 143.56408,1.47670112 145.023515,3.0361618 C146.429756,4.51930787 147.144488,6.44443146 147.019201,8.45881348 C146.944946,9.67849888 143.57461,27.2338247 141.815188,35.2953978 C141.763885,35.5545438 141.595935,35.7797124 141.366152,35.903218 C141.234384,35.9754876 141.078855,36.0178247 140.932237,36.0178247 C140.81721,36.0178247 140.719194,36.000836 140.629819,35.9625438 C140.29365,35.8562966 139.934259,35.7926562 139.551376,35.7926562 C139.10234,35.7926562 138.693807,35.8689708 138.331986,36.0178247 C138.206698,36.068791 138.095992,36.0900944 137.989606,36.0900944" id="Fill-1" fill="#FEFEFE"></path>
                        <g id="Group-5" transform="translate(131.227630, 0.233258)">
                            <mask id="mask-2" fill="white">
                                <use xlink:href="#path-1"></use>
                            </mask>
                            <g id="Clip-4"></g>
                            <path d="M8.17896452,0.0364044944 C6.05772119,0.0364044944 3.99183108,0.912 2.50890487,2.4458427 C0.993846782,3.99289888 0.189740031,6.03289888 0.240772998,8.19155056 C0.283435479,9.81923596 3.51309325,26.7157753 5.56818273,35.2363146 C5.63865683,35.5593708 5.86411994,35.856809 6.191919,36.0266966 C6.38525024,36.1245843 6.56643077,36.171236 6.76192214,36.171236 C6.89584992,36.171236 7.04921884,36.141573 7.19367724,36.0906067 C7.54280754,35.9460674 7.91920942,35.8737978 8.32369294,35.8737978 C8.67039309,35.8737978 9.00008226,35.9250337 9.3000697,36.0266966 C9.41293626,36.0779326 9.55334443,36.0949213 9.70455322,36.0949213 C9.90652496,36.0949213 10.1171372,36.0396404 10.2937275,35.9374382 C10.6001953,35.7845393 10.8237683,35.4787416 10.8961325,35.1217079 C12.6533947,27.0558202 16.029941,9.4705618 16.1085155,8.24683146 C16.2297526,6.14319101 15.4896396,4.1331236 14.0234543,2.59038202 C12.5002958,0.967011236 10.3682518,0.0364044944 8.17896452,0.0364044944 M8.17896452,0.66552809 C10.2046223,0.66552809 12.1641262,1.52386517 13.5682078,3.01968539 C14.9190964,4.43892135 15.5935956,6.28341573 15.4828892,8.20422472 C15.4043146,9.39829213 12.0385689,26.9199101 10.2831969,34.9941573 C10.2491749,35.1683596 10.1492691,35.3085843 9.99806028,35.3894831 C9.90004458,35.4444944 9.79608854,35.474427 9.70455322,35.474427 C9.63434914,35.474427 9.56387504,35.4617528 9.50231146,35.4404494 C9.13617017,35.3085843 8.7427573,35.2492584 8.32369294,35.2492584 C7.84063485,35.2492584 7.39186876,35.3258427 6.98738524,35.4997753 C6.91286091,35.5253933 6.83212622,35.5380674 6.76192214,35.5380674 C6.66633658,35.5380674 6.57480126,35.5210787 6.48542606,35.474427 C6.32368666,35.3935281 6.21298022,35.2492584 6.17058776,35.0834157 C4.12170863,26.567191 0.906901727,9.76395506 0.872879749,8.1788764 C0.821576766,6.1941573 1.55790958,4.31595506 2.95794097,2.88808989 C4.32800063,1.46858427 6.23863171,0.66552809 8.17896452,0.66552809" id="Fill-3" fill="#FEFEFE" mask="url(#mask-2)"></path>
                        </g>
                        <path d="M139.551322,47.1859416 C138.170462,47.1859416 136.981043,46.6929978 136.004666,45.7240989 C135.03639,44.7595146 134.538481,43.5565483 134.538481,42.1672449 C134.538481,40.7730876 135.03639,39.5833348 136.004666,38.6101213 C136.981043,37.6412225 138.176673,37.143964 139.551322,37.143964 C140.938393,37.143964 142.142663,37.6412225 143.11499,38.614436 C144.083266,39.5833348 144.570374,40.7730876 144.570374,42.1672449 C144.570374,43.5525034 144.083266,44.7465708 143.11931,45.7154697 C142.142663,46.6929978 140.942713,47.1859416 139.551322,47.1859416" id="Fill-6" fill="#FEFEFE"></path>
                        <path d="M139.551322,36.8337978 C138.089727,36.8337978 136.819574,37.3564045 135.783253,38.3892135 C134.749363,39.4220225 134.226073,40.6924045 134.226073,42.167191 C134.226073,43.6460225 134.749363,44.9123596 135.783253,45.9451685 C136.814983,46.9777079 138.085137,47.5003146 139.551322,47.5003146 C141.034249,47.5003146 142.302242,46.9777079 143.336403,45.9451685 C144.364082,44.9123596 144.887373,43.6460225 144.887373,42.167191 C144.887373,40.6924045 144.364082,39.4220225 143.336403,38.3935281 C142.297922,37.3564045 141.023718,36.8337978 139.551322,36.8337978 M139.551322,37.4542921 C140.861979,37.4542921 141.980924,37.921618 142.887366,38.831191 C143.80434,39.7491236 144.261746,40.8666067 144.261746,42.167191 C144.261746,43.4758652 143.80434,44.589573 142.887366,45.4988764 C141.980924,46.4124944 140.861979,46.8757753 139.551322,46.8757753 C138.257677,46.8757753 137.138732,46.4124944 136.223919,45.4988764 C135.308836,44.589573 134.851429,43.4758652 134.851429,42.167191 C134.851429,40.8666067 135.308836,39.7491236 136.223919,38.831191 C137.138732,37.921618 138.257677,37.4542921 139.551322,37.4542921" id="Fill-8" fill="#FEFEFE"></path>
                        <path d="M42.276979,40.5224899 C41.1979962,40.5224899 40.2086587,40.3143101 39.3238173,39.9232989 C38.4513965,39.5322876 37.6961626,39.0010517 37.0853871,38.355209 C36.2791203,37.4839281 35.6983165,36.4980404 35.3664672,35.4185798 C35.0664797,34.3860404 34.915541,33.1110742 34.915541,31.6023101 L34.915541,17.5277933 C34.915541,17.0262202 35.328125,16.6139056 35.8260339,16.6139056 L41.1979962,16.6139056 C41.7067058,16.6139056 42.1109193,17.0262202 42.1109193,17.5277933 L42.1109193,30.8418607 C42.1109193,31.8021303 42.3110009,32.567164 42.6982035,33.0984 C43.0278926,33.5530517 43.5919554,33.7739056 44.4173934,33.7739056 C44.9406838,33.7739056 45.5023165,33.6806022 46.0704295,33.5018157 C46.6555535,33.3235685 47.2128659,33.0984 47.7237356,32.8392539 C48.1662914,32.6310742 48.6150575,32.3886472 49.0470826,32.1295011 L49.0470826,17.5277933 C49.0470826,17.0262202 49.4618267,16.6139056 49.9702662,16.6139056 L55.3362882,16.6139056 C55.8404075,16.6139056 56.2489413,17.0262202 56.2489413,17.5277933 L56.2489413,39.0690067 C56.2489413,39.5705798 55.8404075,39.9742652 55.3362882,39.9742652 L50.4257827,39.9742652 C49.948935,39.9742652 49.553362,39.6301753 49.5063793,39.1755236 L49.3362694,37.8026697 C48.8723824,38.1214112 48.3979648,38.4188494 47.9300276,38.6952539 C47.1491422,39.1286022 46.2724013,39.5366022 45.3151956,39.9189843 C44.3023667,40.3143101 43.2790072,40.5224899 42.276979,40.5224899" id="Fill-10" fill="#FEFEFE"></path>
                        <path d="M55.3361802,16.2994517 L49.9704283,16.2994517 C49.2853984,16.2994517 48.7364565,16.851991 48.7364565,17.5277663 L48.7364565,31.9509573 C48.3576245,32.1718112 47.9747422,32.3759461 47.59159,32.5544629 C47.0893608,32.8092944 46.5490593,33.0261034 45.9790562,33.2089348 C45.4344345,33.3747775 44.9108741,33.4594517 44.4172854,33.4594517 C43.3407328,33.4594517 43.051276,33.056036 42.9578505,32.9198562 C42.6044,32.4398562 42.4215994,31.7384629 42.4215994,30.8418337 L42.4215994,17.5277663 C42.4215994,16.851991 41.8726575,16.2994517 41.1981582,16.2994517 L35.8259259,16.2994517 C35.1516967,16.2994517 34.5962744,16.851991 34.5962744,17.5277663 L34.5962744,31.6025528 C34.5962744,33.1323506 34.7580138,34.4453393 35.070692,35.5078112 C35.4173922,36.6341933 36.017367,37.6626876 36.8536057,38.5633618 C37.5005633,39.2477663 38.2854989,39.8043506 39.1962619,40.2120809 C40.1194455,40.6246652 41.1579259,40.8368899 42.276871,40.8368899 C43.3150813,40.8368899 44.376783,40.6246652 45.4298443,40.2120809 C46.3981206,39.8213393 47.2853922,39.4090247 48.0703278,38.9756764 C48.4086575,38.7715416 48.7531975,38.5633618 49.0872069,38.3425079 L49.1895429,39.2178337 C49.2662273,39.8213393 49.7895177,40.2929798 50.4256747,40.2929798 L55.3361802,40.2929798 C56.0125695,40.2929798 56.5661017,39.7404404 56.5661017,39.0689798 L56.5661017,17.5277663 C56.5661017,16.851991 56.0125695,16.2994517 55.3361802,16.2994517 M55.3361802,16.9326202 C55.6745099,16.9326202 55.9402053,17.1960809 55.9402053,17.5277663 L55.9402053,39.0689798 C55.9402053,39.3963506 55.6745099,39.6641258 55.3361802,39.6641258 L50.4256747,39.6641258 C50.1148867,39.6641258 49.8510813,39.4430022 49.8127391,39.1372045 L49.5832257,37.2417438 C48.9873011,37.6626876 48.383276,38.0661034 47.7616998,38.4231371 C46.9937752,38.8567551 46.1278349,39.2561258 45.2003309,39.6258337 C44.221524,40.0168449 43.2343466,40.2037213 42.276871,40.2037213 C41.2343403,40.2037213 40.2917155,40.0168449 39.4492666,39.6428225 C38.6173482,39.2601708 37.9023466,38.7588674 37.3131724,38.138373 C36.532287,37.2970247 35.9876653,36.3577888 35.6706669,35.3209348 C35.3790499,34.3436764 35.2219008,33.0897438 35.2219008,31.6025528 L35.2219008,17.5277663 C35.2219008,17.1960809 35.4940766,16.9326202 35.8259259,16.9326202 L41.1981582,16.9326202 C41.5324377,16.9326202 41.8002932,17.1960809 41.8002932,17.5277663 L41.8002932,30.8418337 C41.8002932,31.874373 42.0130656,32.6987326 42.4426606,33.2852494 C42.8363435,33.8251146 43.4768207,34.0842607 44.4172854,34.0842607 C44.9832383,34.0842607 45.5618819,33.9866427 46.1553765,33.7994966 C46.7810028,33.6083056 47.3599165,33.3747775 47.8640358,33.1237213 C48.3746355,32.8772494 48.8768647,32.6011146 49.363973,32.3036764 L49.363973,17.5277663 C49.363973,17.1960809 49.6342587,16.9326202 49.9704283,16.9326202 L55.3361802,16.9326202" id="Fill-12" fill="#FEFEFE"></path>
                        <path d="M63.5700119,13.8346787 C62.4316257,13.8346787 61.4935912,13.4353079 60.7615786,12.6532854 C60.0338863,11.8968809 59.6618047,10.9490157 59.6618047,9.83989213 C59.6618047,8.72645393 60.0338863,7.77885843 60.7615786,7.01813933 C61.4998016,6.23611685 62.4572772,5.83674607 63.5700119,5.83674607 C64.6827466,5.83674607 65.6380622,6.23611685 66.3976163,7.01813933 C67.1488,7.77885843 67.5316823,8.72645393 67.5316823,9.83989213 C67.5316823,10.9490157 67.1488,11.8968809 66.3976163,12.6659596 C65.6423824,13.4436674 64.6827466,13.8346787 63.5700119,13.8346787 L63.5700119,13.8346787 Z M60.8892961,39.9744539 C60.3873369,39.9744539 59.9744829,39.5704989 59.9744829,39.0689258 L59.9744829,17.5277124 C59.9744829,17.0261393 60.3873369,16.6138247 60.8892961,16.6138247 L66.2572082,16.6138247 C66.769968,16.6138247 67.1679711,17.0177798 67.1679711,17.5277124 L67.1679711,39.0689258 C67.1679711,39.5791281 66.769968,39.9744539 66.2572082,39.9744539 L60.8892961,39.9744539 Z" id="Fill-14" fill="#FEFEFE"></path>
                        <path d="M66.2571812,16.2994517 L60.8892691,16.2994517 C60.2082895,16.2994517 59.6617777,16.851991 59.6617777,17.5277663 L59.6617777,39.0689798 C59.6617777,39.7404404 60.2082895,40.2929798 60.8892691,40.2929798 L66.2571812,40.2929798 C66.9378907,40.2929798 67.4849425,39.7404404 67.4849425,39.0689798 L67.4849425,17.5277663 C67.4849425,16.851991 66.9378907,16.2994517 66.2571812,16.2994517 M63.5699849,5.52641798 C62.3829959,5.52641798 61.3275046,5.96435056 60.5382487,6.80165393 C59.7444025,7.62169888 59.3445093,8.64156404 59.3445093,9.83994607 C59.3445093,11.0296989 59.7444025,12.0538787 60.5422989,12.8741933 C61.3275046,13.7198562 62.3468138,14.1448449 63.5699849,14.1448449 C64.7807353,14.1448449 65.8019347,13.7198562 66.6295328,12.8828225 C67.4209488,12.0668225 67.8486537,11.0170247 67.8486537,9.83994607 C67.8486537,8.64587865 67.4295893,7.62169888 66.6233224,6.79706966 C65.8019347,5.95572135 64.7807353,5.52641798 63.5699849,5.52641798 M66.2571812,16.9326202 C66.5998311,16.9326202 66.8549959,17.1960809 66.8549959,17.5277663 L66.8549959,39.0689798 C66.8549959,39.3963506 66.5998311,39.6641258 66.2571812,39.6641258 L60.8892691,39.6641258 C60.5574198,39.6641258 60.2806537,39.3963506 60.2806537,39.0689798 L60.2806537,17.5277663 C60.2806537,17.1960809 60.5574198,16.9326202 60.8892691,16.9326202 L66.2571812,16.9326202 M63.5699849,6.15122697 C64.5976647,6.15122697 65.4700854,6.51257528 66.1699661,7.23500225 C66.8614763,7.93612584 67.2189771,8.81145169 67.2189771,9.83994607 C67.2189771,10.8514517 66.8614763,11.7394517 66.1699661,12.4408449 C65.4700854,13.1632719 64.5976647,13.5203056 63.5699849,13.5203056 C62.5382549,13.5203056 61.6658342,13.1632719 60.9956553,12.4408449 C60.3149457,11.7351371 59.9744559,10.8514517 59.9744559,9.83994607 C59.9744559,8.81145169 60.3149457,7.94044045 60.9956553,7.23500225 C61.6701545,6.51257528 62.5382549,6.15122697 63.5699849,6.15122697" id="Fill-16" fill="#FEFEFE"></path>
                        <path d="M81.1569444,21.8834966 C80.5569695,21.8834966 80.0631108,22.0237213 79.635676,22.3128 C79.1399272,22.6355865 78.742194,23.0182382 78.4462568,23.4475416 C78.1122474,23.923227 77.8654531,24.4164404 77.6737419,24.9177438 C77.6591611,24.9687101 77.63999,25.0196764 77.6291893,25.0665978 L83.9929193,24.6286652 C83.9718581,24.548036 83.9588973,24.4544629 83.9375661,24.3695191 C83.8460308,23.9572045 83.6697105,23.5578337 83.4291265,23.1794966 C83.2058235,22.8267775 82.8823447,22.503991 82.490822,22.2275865 C82.1589727,21.9981034 81.7102066,21.8834966 81.1569444,21.8834966 M80.4929758,40.5225978 C78.9144641,40.5225978 77.4399083,40.2208449 76.1057608,39.6302831 C74.7826838,39.0478112 73.6294468,38.2150921 72.6719711,37.1526202 C71.7123353,36.0985079 70.9635818,34.8321708 70.4551422,33.3916315 C69.9442725,31.9510921 69.6826273,30.3616989 69.6826273,28.6531146 C69.6826273,27.1656539 69.9591234,25.6401708 70.5185959,24.1316764 C71.0783385,22.6442157 71.8592239,21.3012944 72.8526116,20.107227 C73.840059,18.9215191 75.0486493,17.9442607 76.4505708,17.2129348 C77.8908345,16.4524854 79.4887874,16.0698337 81.2058173,16.0698337 C83.1396697,16.0698337 84.7843353,16.5290697 86.06934,17.4467326 C87.3100622,18.326373 88.2907592,19.3848 89.0011705,20.6255191 C89.6821501,21.8069124 90.1695284,23.035227 90.4525049,24.2759461 C90.71199,25.5083056 90.8459177,26.4858337 90.8459177,27.2678562 C90.8459177,27.4803506 90.8418675,27.6418787 90.8097356,27.7861483 C90.8013651,27.8923955 90.7948848,27.9945978 90.765183,28.1005753 L90.7543824,28.1388674 C90.7460119,28.3939685 90.6226148,28.6107775 90.4141626,28.7849798 L89.6610889,29.4052045 C89.4863887,29.5456989 89.2927874,29.6136539 89.0970261,29.6136539 L77.3059805,29.8644404 C77.3505331,30.1958562 77.4269476,30.5569348 77.5292835,30.9225978 C77.7058738,31.5940584 77.9974907,32.2102382 78.4100747,32.7625079 C78.8037576,33.3066876 79.3332584,33.7529798 79.9910166,34.1011146 C80.6485049,34.4454742 81.5079648,34.6196764 82.5526556,34.6196764 C83.1056477,34.6196764 83.6567498,34.5603506 84.1843604,34.4411596 C84.7630041,34.3092944 85.2992553,34.1733843 85.7823133,34.0374742 C86.2867027,33.8675865 86.8099931,33.6550921 87.2887309,33.4169798 C87.4034876,33.3616989 87.5501061,33.3234067 87.6907843,33.3234067 C88.029114,33.3234067 88.3417922,33.5019236 88.5035316,33.7996315 L90.0226399,36.6170697 C90.2418926,37.0334292 90.1098549,37.5606202 89.7226524,37.8154517 C88.9077451,38.3510022 87.9886116,38.8142831 86.9906336,39.2050247 C86.1992176,39.5450697 85.2312113,39.8511371 84.1184766,40.1145978 C82.9887309,40.382373 81.7655598,40.5225978 80.4929758,40.5225978" id="Fill-18" fill="#FEFEFE"></path>
                        <path d="M78.0909162,24.7179236 C78.2526556,24.3441708 78.4613777,23.9828225 78.7016917,23.6384629 C78.9738675,23.226418 79.3421689,22.8736989 79.7952553,22.5679011 C80.1781375,22.3128 80.6225834,22.193609 81.1569444,22.193609 C81.6505331,22.193609 82.0334154,22.2914966 82.3080214,22.4867326 C82.6717325,22.7377888 82.9611893,23.0309124 83.1674813,23.3539685 C83.3737733,23.6683955 83.5206619,23.9998112 83.610037,24.3398562 L78.0909162,24.7179236 Z M81.2058173,15.7554067 C79.4377545,15.7554067 77.7890386,16.1550472 76.3036823,16.9327551 C74.871789,17.6891596 73.6294468,18.6877213 72.6101375,19.9117213 C71.5932584,21.1227775 70.795362,22.508036 70.2315692,24.0254292 C69.6569758,25.5679011 69.3699491,27.1276315 69.3699491,28.6531146 C69.3699491,30.3913618 69.6315943,32.0233618 70.1570449,33.4892494 C70.6806053,34.9767101 71.4571705,36.2770247 72.4400276,37.3648449 C73.4250449,38.4572494 74.6144641,39.3199011 75.9804735,39.9190921 C77.3505331,40.5225978 78.8699115,40.8370247 80.4929758,40.8370247 C81.7949915,40.8370247 83.0357137,40.6924854 84.1930009,40.4163506 C85.3227466,40.1569348 86.3077639,39.8384629 87.1205111,39.4897888 C88.1246995,39.0987775 89.0565237,38.6230921 89.8887121,38.083227 C90.4141626,37.7305079 90.5950732,37.0334292 90.2972458,36.4725303 L88.7738173,33.6550921 C88.5524044,33.2557213 88.1438706,33.0046652 87.6907843,33.0046652 C87.5055535,33.0046652 87.3100622,33.0559011 87.1269915,33.1492045 C86.688486,33.3703281 86.1759962,33.5785079 85.6759272,33.740036 C85.1758581,33.8845753 84.6482474,34.0248 84.107946,34.1437213 C83.610037,34.2499685 83.0802662,34.3052494 82.5526556,34.3052494 C81.5589978,34.3052494 80.7440904,34.1437213 80.1376352,33.8292944 C79.5228094,33.5019236 79.0357011,33.0812494 78.6611893,32.5756315 C78.2739868,32.0570697 77.9931705,31.4665079 77.8252207,30.8416989 C77.7652772,30.6165303 77.710194,30.3786876 77.6740119,30.1659236 L89.1035064,29.9237663 C89.3608314,29.9237663 89.6162662,29.8345079 89.8374091,29.6646202 L90.6226148,29.0230921 C90.8820998,28.8103281 91.0419491,28.5172045 91.0673306,28.1857888 C91.1035127,28.0795416 91.1118832,27.9689798 91.1118832,27.8414292 C91.1523856,27.6588674 91.1588659,27.4590472 91.1588659,27.2678562 C91.1588659,26.4645303 91.0268283,25.4700135 90.7543824,24.2123056 C90.4673557,22.9330247 89.9694468,21.6796315 89.2736163,20.4683056 C88.5375535,19.1976539 87.5290449,18.0971596 86.2545708,17.1959461 C84.9098926,16.239991 83.2058235,15.7554067 81.2058173,15.7554067 L81.2058173,15.7554067 Z M77.1866336,25.406373 L84.3544703,24.9177438 C84.331249,24.735182 84.2950669,24.522418 84.246194,24.2972494 C84.1354876,23.8466427 83.9588973,23.417609 83.7013024,23.0139236 C83.437497,22.6229124 83.0910669,22.2701933 82.6674122,21.9770697 C82.2866901,21.7006652 81.7825708,21.5690697 81.1569444,21.5690697 C80.4972961,21.5690697 79.9356634,21.7260135 79.4526053,22.0493393 C78.9441658,22.3891146 78.5037702,22.8014292 78.1824515,23.2730697 C77.8462819,23.7703281 77.5738361,24.2845753 77.382395,24.8114966 C77.3059805,25.023991 77.2398267,25.2238112 77.1866336,25.406373 L77.1866336,25.406373 Z M81.2058173,16.3845303 C83.0802662,16.3845303 84.6568879,16.8305528 85.8930198,17.7061483 C87.0929695,18.5558562 88.0439648,19.5929798 88.7246744,20.7827326 C89.4013338,21.9517213 89.869541,23.1455191 90.1395567,24.3441708 C90.4079523,25.5465978 90.5332396,26.5030921 90.5332396,27.2678562 C90.5332396,27.450418 90.5289193,27.6035865 90.5035378,27.7225079 C90.488687,27.7734742 90.488687,27.8117663 90.488687,27.8414292 C90.488687,27.9180135 90.4778863,27.9816539 90.4525049,28.0452944 C90.4525049,28.0582382 90.4525049,28.075227 90.437384,28.0965303 C90.437384,28.2707326 90.3671799,28.4239011 90.2267717,28.5385079 L89.4650575,29.1673618 C89.3503008,29.2439461 89.2247435,29.299227 89.0970261,29.299227 L76.9549601,29.5626876 C76.9951925,30.0173393 77.0845677,30.497609 77.2206556,31.003227 C77.4123667,31.695991 77.7145143,32.3545079 78.1527498,32.9453393 C78.5782945,33.5148674 79.1461375,34.0078112 79.8462882,34.3775191 C80.5461689,34.747227 81.4547717,34.9300584 82.5526556,34.9300584 C83.1204986,34.9300584 83.7013024,34.8747775 84.2505143,34.747227 C84.8440088,34.6196764 85.3821501,34.4710921 85.8673683,34.335182 C86.3866085,34.1693393 86.9206995,33.9525303 87.4248188,33.7060584 C87.5055535,33.6637213 87.6078895,33.6378337 87.6907843,33.6378337 C87.9035567,33.6378337 88.1141689,33.7529798 88.2270355,33.9525303 L89.7458738,36.7656539 C89.8887121,37.0420584 89.8033871,37.3861483 89.5457922,37.5606202 C88.735475,38.0915865 87.8438832,38.5378787 86.8801972,38.9119011 C86.0993118,39.2476315 85.1418361,39.5491146 84.0482725,39.8042157 C82.9482286,40.0676764 81.7463887,40.2038562 80.4929758,40.2038562 C78.948486,40.2038562 77.5228031,39.9147775 76.2377984,39.3452494 C74.9549538,38.7843506 73.8335786,37.9726652 72.9039146,36.9401258 C71.9761407,35.9156764 71.2484484,34.6879011 70.7462192,33.2810697 C70.2464201,31.8828674 69.9953055,30.3190921 69.9953055,28.6531146 C69.9953055,27.1829124 70.2720716,25.7081258 70.8166932,24.2376539 C71.3548345,22.7844404 72.1251893,21.4625528 73.0888754,20.3110921 C74.0528314,19.1596315 75.2357702,18.2077213 76.6015096,17.4850247 C77.9823699,16.7625978 79.5271297,16.3845303 81.2058173,16.3845303 L81.2058173,16.3845303 Z" id="Fill-20" fill="#FEFEFE"></path>
                        <path d="M93.8692835,39.974373 C93.360844,39.974373 92.9523102,39.5706876 92.9523102,39.0691146 L92.9523102,17.5276315 C92.9523102,17.0260584 93.360844,16.6137438 93.8692835,16.6137438 L98.8373024,16.6137438 C99.3160402,16.6137438 99.7032427,16.9750921 99.7437451,17.4467326 L99.8903636,18.8702831 C100.037252,18.7216989 100.198992,18.5688 100.365051,18.4115865 C100.975557,17.8674067 101.709729,17.3491146 102.547858,16.8688449 C103.458621,16.3462382 104.515732,16.0698337 105.67977,16.0698337 C105.937095,16.0698337 106.19658,16.0827775 106.430684,16.0997663 C106.698809,16.1167551 106.920222,16.1421034 107.111393,16.1803955 L107.624423,16.265609 C107.866897,16.2993169 108.098841,16.4524854 108.243569,16.6819685 C108.381817,16.8772045 108.42232,17.153609 108.356166,17.4000809 L107.009597,22.3637663 C106.902941,22.7674517 106.54139,23.0435865 106.130966,23.0435865 L105.862571,23.0435865 C105.730803,23.0435865 105.583915,23.0309124 105.428656,23.0139236 C105.343601,23.0012494 105.237214,23.0012494 105.101127,23.0012494 C104.551915,23.0012494 104.022414,23.0945528 103.543676,23.2730697 C102.999054,23.4815191 102.507626,23.732036 102.06291,24.0168 C101.605233,24.3058787 101.190489,24.6286652 100.822188,24.9687101 C100.545962,25.2278562 100.324549,25.4573393 100.152009,25.6528449 L100.152009,39.0691146 C100.152009,39.5706876 99.7437451,39.974373 99.2396257,39.974373 L93.8692835,39.974373 Z" id="Fill-22" fill="#FEFEFE"></path>
                        <path d="M105.679662,15.7554876 C104.454061,15.7554876 103.347807,16.0445663 102.384121,16.596836 C101.524391,17.0940944 100.777527,17.6169708 100.158381,18.1735551 C100.148121,18.1819146 100.14353,18.1862292 100.14353,18.1862292 L100.052265,17.4042067 C100.011763,16.788027 99.4776716,16.2993978 98.8371943,16.2993978 L93.8691755,16.2993978 C93.1844157,16.2993978 92.6352038,16.8519371 92.6352038,17.5277124 L92.6352038,39.0689258 C92.6352038,39.7403865 93.1844157,40.2929258 93.8691755,40.2929258 L99.2395177,40.2929258 C99.9159071,40.2929258 100.465119,39.7403865 100.465119,39.0689258 L100.465119,25.7761618 C100.616058,25.5976449 100.803179,25.4107685 101.039442,25.1939596 C101.386143,24.871173 101.790626,24.5651056 102.239392,24.276027 C102.652246,24.0039371 103.130984,23.7660944 103.649954,23.5705888 C104.105471,23.3923416 104.592579,23.3114427 105.101019,23.3114427 C105.215775,23.3114427 105.307311,23.3114427 105.388045,23.3241169 C105.550055,23.3411056 105.709634,23.3580944 105.862733,23.3580944 L106.130858,23.3580944 C106.684121,23.3580944 107.173389,22.9843416 107.313797,22.4444764 L108.658475,17.4851056 C108.74542,17.1407461 108.688177,16.788027 108.507267,16.5032629 C108.315825,16.2058247 108.003147,16.0019596 107.649967,15.9509933 L107.152058,15.8660494 C106.968987,15.8361169 106.732723,15.8064539 106.451907,15.7894652 C106.209433,15.7724764 105.947788,15.7554876 105.679662,15.7554876 M105.679662,16.3846112 C105.930777,16.3846112 106.175411,16.3970157 106.415725,16.4099596 C106.664949,16.4309933 106.875292,16.4522966 107.056472,16.4905888 L107.571122,16.5798472 C107.741232,16.596836 107.888121,16.6987685 107.971285,16.8476225 C108.062821,16.9794876 108.094413,17.1620494 108.05823,17.3235775 L106.709502,22.2829483 C106.637138,22.546409 106.401144,22.7292404 106.130858,22.7292404 L105.862733,22.7292404 C105.741226,22.7292404 105.609458,22.7249258 105.46905,22.6993079 C105.366984,22.6866337 105.251957,22.6823191 105.101019,22.6823191 C104.515895,22.6823191 103.962632,22.7802067 103.426381,22.9843416 C102.877709,23.1882067 102.360629,23.4473528 101.896742,23.7491056 C101.418274,24.059218 100.981929,24.3949483 100.607417,24.7349933 C100.299059,25.0240719 100.037414,25.2961618 99.8394926,25.5466787 L99.8394926,39.0689258 C99.8394926,39.3962966 99.5735272,39.6640719 99.2395177,39.6640719 L93.8691755,39.6640719 C93.5308458,39.6640719 93.2629903,39.3962966 93.2629903,39.0689258 L93.2629903,17.5277124 C93.2629903,17.196027 93.5308458,16.9325663 93.8691755,16.9325663 L98.8371943,16.9325663 C99.1501425,16.9325663 99.4074675,17.1577348 99.432849,17.4724315 L99.6480515,19.6014202 C99.9350782,19.2743191 100.248026,18.9469483 100.575555,18.6411506 C101.17553,18.1056 101.879731,17.604027 102.692478,17.1407461 C103.564899,16.639173 104.562607,16.3846112 105.679662,16.3846112" id="Fill-24" fill="#FEFEFE"></path>
                        <path d="M118.881594,21.9727011 C117.566617,21.9727011 116.558109,22.4486562 115.802875,23.4388584 C115.013619,24.4886562 114.609405,26.0950382 114.609405,28.2027236 C114.609405,30.2850607 115.039,31.916791 115.89873,33.0345438 C116.709317,34.1010607 117.692175,34.6196225 118.881594,34.6196225 C120.202781,34.6196225 121.200489,34.1439371 121.926291,33.1620944 C122.717437,32.1039371 123.11328,30.4975551 123.11328,28.3769258 C123.11328,26.2945888 122.685845,24.6714876 121.843396,23.5451056 C121.043339,22.4826337 120.081543,21.9727011 118.881594,21.9727011 M118.841091,40.5225438 C116.962322,40.5225438 115.268784,40.195173 113.788018,39.5493303 C112.315622,38.8905438 111.066799,37.9896 110.073142,36.8761618 C109.081644,35.754364 108.32668,34.436791 107.830661,32.9452854 C107.339233,31.4664539 107.094598,29.8727461 107.094598,28.2027236 C107.094598,26.4561169 107.368934,24.8284315 107.907346,23.3665888 C108.447647,21.9090607 109.243653,20.6087461 110.271063,19.507982 C111.303063,18.4198921 112.564846,17.5658697 114.019961,16.966409 C115.466705,16.3718022 117.107051,16.0697798 118.881594,16.0697798 C120.755773,16.0697798 122.460382,16.4014652 123.930347,17.0473079 C125.406793,17.6974652 126.651565,18.594364 127.645223,19.7161618 C128.641041,20.8296 129.394115,22.1638921 129.887434,23.6513528 C130.381292,25.1301843 130.634297,26.7238921 130.634297,28.3769258 C130.634297,30.1278472 130.355911,31.751218 129.815339,33.2173753 C129.266397,34.6918921 128.470661,35.9965213 127.442981,37.075982 C126.410981,38.1767461 125.155949,39.0310382 123.709204,39.6216 C122.26435,40.2164764 120.624005,40.5225438 118.841091,40.5225438" id="Fill-26" fill="#FEFEFE"></path>
                        <path d="M118.881594,34.3052764 C117.773179,34.3052764 116.900759,33.8376809 116.147685,32.8561079 C115.330617,31.7893213 114.926404,30.2171865 114.926404,28.2028045 C114.926404,26.1584899 115.304966,24.6246472 116.06047,23.6344449 C116.75603,22.7121978 117.653832,22.2828944 118.881594,22.2828944 C119.985688,22.2828944 120.847308,22.7418607 121.594171,23.7363775 C122.389908,24.7985798 122.798441,26.3669393 122.798441,28.3770067 C122.798441,30.4294112 122.419609,31.9764674 121.683547,32.9752989 C121.004997,33.8846022 120.117726,34.3052764 118.881594,34.3052764 M118.881594,15.7554337 C117.068978,15.7554337 115.38381,16.0698607 113.892514,16.6819955 C112.403107,17.2895461 111.102981,18.1735011 110.04992,19.2955685 C108.986058,20.4259955 108.171151,21.7643326 107.620049,23.268782 C107.066787,24.7521978 106.78408,26.4179056 106.78408,28.2028045 C106.78408,29.9111191 107.030605,31.5344899 107.528784,33.0346247 C108.045594,34.572782 108.818109,35.9326921 109.841468,37.0844225 C110.856187,38.2361528 112.143352,39.1670292 113.66246,39.8341753 C115.183729,40.4970067 116.92209,40.836782 118.841091,40.836782 C120.660187,40.836782 122.345355,40.5223551 123.830441,39.9148045 C125.315528,39.2986247 126.611063,38.4232989 127.674925,37.2926022 C128.734737,36.1794337 129.545054,34.8448719 130.108846,33.3234337 C130.658058,31.8276135 130.945085,30.1659506 130.945085,28.3770067 C130.945085,26.6897258 130.68344,25.0666247 130.179051,23.5535461 C129.681142,22.0194337 128.904846,20.6595236 127.881487,19.5077933 C126.853807,18.3563326 125.575013,17.4297708 124.062115,16.7626247 C122.545167,16.091164 120.802755,15.7554337 118.881594,15.7554337 M118.881594,34.9300854 C120.307007,34.9300854 121.39193,34.4158382 122.183616,33.3533663 C123.013374,32.2315685 123.421908,30.565591 123.421908,28.3770067 C123.421908,26.2437034 122.983672,24.5353888 122.096401,23.3580404 C121.23046,22.2149393 120.181449,21.6583551 118.881594,21.6583551 C117.456181,21.6583551 116.373148,22.1893213 115.562561,23.2517933 C114.719842,24.3611865 114.296457,26.031209 114.296457,28.2028045 C114.296457,30.3614562 114.756024,32.0487371 115.651936,33.2344449 C116.524357,34.3689169 117.575258,34.9300854 118.881594,34.9300854 M118.881594,16.3845573 C120.728231,16.3845573 122.372897,16.7030292 123.81127,17.3321528 C125.232363,17.9653213 126.451484,18.8322876 127.40923,19.9201079 C128.370755,21.0038831 129.104658,22.2915236 129.589876,23.7490517 C130.068614,25.1939056 130.319729,26.7450067 130.319729,28.3770067 C130.319729,30.089636 130.042963,31.6830742 129.519672,33.111209 C128.989631,34.5474337 128.213336,35.8097258 127.221839,36.8592539 C126.234661,37.9174112 125.00906,38.7547146 123.587697,39.3326022 C122.177135,39.9148045 120.585663,40.2036135 118.841091,40.2036135 C117.013625,40.2036135 115.345468,39.8848719 113.919785,39.2603326 C112.487892,38.6398382 111.273091,37.7558831 110.311565,36.6680629 C109.345449,35.5929169 108.613707,34.3009618 108.128489,32.8477483 C107.649751,31.4026247 107.405116,29.843164 107.405116,28.2028045 C107.405116,26.5028494 107.668922,24.9134562 108.198963,23.4812764 C108.734944,22.0407371 109.515829,20.7827596 110.503007,19.7289169 C111.500985,18.6707596 112.720105,17.8377708 114.130397,17.2558382 C115.54744,16.6819955 117.143233,16.3845573 118.881594,16.3845573" id="Fill-28" fill="#FEFEFE"></path>
                        <path d="M16.6178732,14.3020315 C16.0540804,14.3020315 15.4902876,14.3573124 14.9283849,14.4508854 C12.2649501,14.9141663 10.1072546,16.6011775 9.00964082,19.0998742 C7.9222876,21.5648629 7.75433783,24.7180315 8.56060471,27.5397843 C9.1967617,29.7496719 10.4501746,31.5386157 12.0926801,32.5797843 C13.3733645,33.4041438 14.9605168,33.8377618 16.6691761,33.8377618 C17.2772515,33.8377618 17.8583253,33.7911101 18.3964666,33.7018517 C20.5285105,33.3235146 22.3327554,32.2230202 23.4962531,30.5826607 C24.6516502,28.9463461 25.2302939,26.8046831 25.2302939,24.2080989 C25.2302939,21.0802787 24.2944195,18.394436 22.5879203,16.6480989 C21.1071542,15.1350202 18.9818606,14.3020315 16.6178732,14.3020315 M32.9195309,47.6536719 C32.1283849,47.6536719 31.2259925,47.5897618 30.1580804,47.4748854 C27.8964289,47.2284135 25.7093017,46.6675146 23.6517821,45.7878742 C20.9815969,44.6617618 18.4518198,42.944818 16.3200458,40.8368629 C14.3413708,40.7732225 11.5329375,40.4374921 9.10090612,39.0266157 C6.22658901,37.347964 4.17122951,35.3209079 2.60972873,32.6649978 C0.986394349,29.8898966 0.222519937,26.7450876 0.324585871,23.3071551 C0.524667504,16.443964 4.5649124,10.5922787 10.6094838,8.42499775 C12.5157947,7.74490787 14.5114807,7.40486292 16.5433488,7.40486292 C20.0306016,7.40486292 23.4346895,8.43740225 26.1475372,10.3201888 C30.4494273,13.3204584 33.0153865,18.5093124 33.0153865,24.2080989 C33.0153865,27.6290427 32.1194744,30.8331775 30.4132452,33.5020315 C29.5581055,34.8322787 28.500454,36.0179865 27.2710725,36.9995596 C27.0431793,37.182391 26.8071856,37.3649528 26.5644414,37.5391551 C26.5242091,37.5690876 26.5242091,37.6284135 26.5495906,37.6626607 C28.2134273,40.5820315 31.5132892,43.0084584 36.6430474,45.0907955 C36.9238637,45.2056719 37.1323159,45.4564584 37.1919893,45.7498517 C37.2643535,46.0470202 37.1663378,46.3574022 36.9492452,46.5742112 C36.2598951,47.3093124 34.9792107,47.6536719 32.9195309,47.6536719" id="Fill-30" fill="#FEFEFE"></path>
                        <path d="M16.6690681,33.5317753 C15.0222424,33.5317753 13.4944936,33.1111011 12.2648421,32.3207191 C10.68201,31.317573 9.47341978,29.5882247 8.8648044,27.4506067 C8.07338838,24.696809 8.23944804,21.6242697 9.29466939,19.2145618 C10.3501608,16.826427 12.4265815,15.2030562 14.9860603,14.7527191 C15.5244716,14.6675056 16.0796239,14.6122247 16.6177651,14.6122247 C18.8964276,14.6122247 20.932616,15.4152809 22.3666694,16.868764 C24.0091749,18.5517303 24.9177777,21.1612584 24.9177777,24.2081798 C24.9177777,26.7408539 24.3539849,28.8275056 23.2347699,30.4039551 C22.1241953,31.968 20.3879943,33.0304719 18.3455956,33.3915506 C17.8179849,33.480809 17.2604025,33.5317753 16.6690681,33.5317753 M16.5435108,7.08620225 C14.4776207,7.08620225 12.4479127,7.43460674 10.5116301,8.12737079 C4.32881068,10.3499326 0.211881319,16.3078652 0.00990957614,23.2986067 C-0.0986367347,26.7961348 0.690619152,29.9959551 2.3374449,32.8136629 C3.92432716,35.5291685 6.02234914,37.5904719 8.93932873,39.2985169 C11.4051121,40.7266517 14.2138154,41.0793708 16.1754794,41.1217079 C18.3199441,43.2380225 20.8605218,44.9422921 23.530437,46.0810787 C25.6133381,46.9607191 27.8347573,47.5345618 30.1196301,47.7896629 C31.200503,47.9083146 32.113156,47.9635955 32.9196929,47.9635955 C35.1068201,47.9635955 36.4153162,47.6025169 37.1918813,46.7778876 C37.4683774,46.5020225 37.5898845,46.0853933 37.5005093,45.6773933 C37.4195046,45.2906966 37.1408484,44.9549663 36.7641765,44.8017978 C31.8007479,42.792 28.5751403,40.463191 26.917784,37.6711011 C27.1089551,37.5306067 27.2901356,37.3863371 27.4729363,37.2417978 C28.7282392,36.2346067 29.8047918,35.0319101 30.6707322,33.672 C32.4174637,30.9524494 33.3279567,27.6841348 33.3279567,24.2081798 C33.3279567,18.4031461 30.7112345,13.1207191 26.3196992,10.0651685 C23.5668892,8.14004494 20.090167,7.08620225 16.5435108,7.08620225 M16.6690681,34.1479551 C17.2647228,34.1479551 17.8584873,34.1096629 18.4519818,34.0034157 C20.6561199,33.6210337 22.5432597,32.4693034 23.7475297,30.7566742 C24.9409991,29.0739775 25.5409739,26.8684045 25.5409739,24.2081798 C25.5409739,20.9911011 24.5753978,18.2329888 22.8113852,16.4311011 C21.2644653,14.8503371 19.0689677,13.9876854 16.6177651,13.9876854 C16.0329111,13.9876854 15.4499473,14.0429663 14.8796741,14.1405843 C12.1031027,14.6165393 9.86062229,16.3801348 8.71602575,18.9683596 C7.60302104,21.5137079 7.43939152,24.7520899 8.25213878,27.6288539 C8.91394725,29.9026517 10.2138028,31.7638652 11.920302,32.8476404 C13.2628201,33.7059775 14.9115359,34.1479551 16.6690681,34.1479551 M16.5435108,7.71505618 C19.9751403,7.71505618 23.3155046,8.7308764 25.9603083,10.5751011 C30.1919943,13.5157753 32.7090807,18.6156404 32.7090807,24.2081798 C32.7090807,27.5652135 31.8218091,30.7270112 30.1474418,33.3362697 C29.3112031,34.653573 28.2686725,35.7969438 27.072773,36.7615281 C26.8473099,36.9400449 26.6218468,37.1142472 26.3793727,37.2884494 C26.2176333,37.4116854 26.1771309,37.6368539 26.2686662,37.8113258 C27.9708452,40.7946067 31.3322706,43.2806292 36.532233,45.3883146 C36.7131435,45.4562697 36.8492314,45.6177978 36.8854135,45.813573 C36.9321262,46.008809 36.8748829,46.2126742 36.7279943,46.3485843 C36.102638,47.0203146 34.8897275,47.3387865 32.9196929,47.3387865 C32.1091058,47.3387865 31.1856521,47.2794607 30.1919943,47.1688989 C27.9559943,46.922427 25.8050493,46.3615281 23.7793915,45.4988764 C21.1326976,44.3811236 18.6391027,42.6897978 16.5435108,40.6117753 C16.477627,40.5395056 16.3774512,40.4968989 16.2645846,40.4968989 C14.3817651,40.463191 11.6308452,40.1315056 9.26064741,38.7546067 C6.43520314,37.1102022 4.40522512,35.1211685 2.88206656,32.499236 C1.28006342,29.7707865 0.537520251,26.6812584 0.635265934,23.3155955 C0.831027316,16.5799551 4.78621727,10.8515056 10.7179221,8.71793258 C12.5775203,8.05941573 14.5370242,7.71505618 16.5435108,7.71505618" id="Fill-32" fill="#FEFEFE"></path>
                        <path d="M42.276979,39.9147775 C41.2471391,39.9147775 40.3663479,39.7362607 39.5662914,39.379227 C38.7662349,39.0141034 38.0790449,38.5295191 37.5236226,37.9386876 C36.7705488,37.1186427 36.2388879,36.2217438 35.9513212,35.2528449 C35.655654,34.2839461 35.5133557,33.0898787 35.5133557,31.602418 L35.5133557,17.2129348 L41.5149947,17.2129348 L41.5149947,30.8416989 C41.5149947,31.9297888 41.7472082,32.8094292 42.2173055,33.4552719 C42.6598612,34.0717213 43.3832333,34.3775191 44.4173934,34.3775191 C45.0278989,34.3775191 45.6278738,34.2799011 46.25134,34.0717213 C46.870486,33.8759461 47.45534,33.6467326 47.9959115,33.3832719 C48.5661846,33.1025528 49.1299774,32.7964854 49.6511077,32.4607551 L49.6511077,17.2129348 L55.6489664,17.2129348 L55.6489664,39.379227 L50.1490166,39.379227 L49.8042066,36.7276315 C49.1299774,37.2332494 48.4084954,37.7092045 47.6213997,38.1768 C46.8769664,38.5931596 46.0299272,38.9882157 45.098103,39.3581933 C44.1597984,39.7235865 43.2044829,39.9147775 42.276979,39.9147775" id="Fill-34" fill="#EE8113"></path>
                        <path d="M55.9575133,16.9027955 L55.3362072,16.9027955 L49.9704553,16.9027955 L49.3448289,16.9027955 L49.3448289,17.5276045 L49.3448289,32.2908404 C48.8682512,32.5799191 48.3617017,32.8563236 47.8597425,33.0984809 C47.3361821,33.357627 46.766179,33.5827955 46.1554035,33.7739865 C45.5575887,33.9694921 44.995956,34.0587506 44.4173124,34.0587506 C43.4852182,34.0587506 42.845011,33.7996045 42.4683391,33.2683685 C42.0387441,32.6861663 41.8278619,31.8658517 41.8278619,30.8419416 L41.8278619,17.5276045 L41.8278619,16.9027955 L41.1981852,16.9027955 L35.8259529,16.9027955 L35.1962763,16.9027955 L35.1962763,17.5276045 L35.1962763,31.602391 C35.1962763,33.1238292 35.3472151,34.3435146 35.655843,35.3380315 C35.9515102,36.3492674 36.5026122,37.2971326 37.2875479,38.1468404 C37.8726719,38.775964 38.5919937,39.2772674 39.4344427,39.6642337 C40.2812119,40.0466157 41.2087159,40.2291775 42.276898,40.2291775 C43.2470644,40.2291775 44.2342418,40.0293573 45.2130487,39.6472449 C46.1554035,39.2772674 47.0170235,38.873582 47.7746876,38.4572225 C48.4086845,38.0705258 48.9978587,37.6921888 49.5576013,37.292818 L49.8000754,39.1456719 L49.8702794,39.6938966 L50.4257017,39.6938966 L55.3362072,39.6938966 L55.9575133,39.6938966 L55.9575133,39.0690876 L55.9575133,17.5276045 L55.9575133,16.9027955 Z M55.3362072,17.5276045 L55.3362072,39.0690876 L50.4257017,39.0690876 L50.0555102,36.2133573 L49.9704553,36.2133573 C49.1660785,36.8381663 48.3276797,37.3907056 47.4638995,37.9046831 C46.7191962,38.3213124 45.889708,38.7123236 44.9829953,39.0690876 C44.0727724,39.4261213 43.1641695,39.6003236 42.276898,39.6003236 C41.3153721,39.6003236 40.4640126,39.4344809 39.6960879,39.090391 C38.940854,38.7506157 38.2855259,38.2956944 37.7514349,37.726436 C37.0367033,36.9484584 36.532314,36.094436 36.2598681,35.1595146 C35.9620408,34.215964 35.8259529,33.0305258 35.8259529,31.602391 L35.8259529,17.5276045 L41.1981852,17.5276045 L41.1981852,30.8419416 C41.1981852,32.010391 41.4555102,32.9369528 41.9534192,33.6380764 C42.4640188,34.3351551 43.2854066,34.6835596 44.4173124,34.6835596 C45.0534694,34.6835596 45.6812559,34.5813573 46.3427943,34.3691326 C46.9959623,34.1693124 47.5959372,33.9228404 48.1321884,33.6636944 C48.7532245,33.3619416 49.364,33.0262112 49.9704553,32.6308854 L49.9704553,17.5276045 L55.3362072,17.5276045 L55.3362072,17.5276045 Z" id="Fill-36" fill="#FEFEFE"></path>
                        <path d="M63.5700119,13.2354337 C62.6190166,13.2354337 61.8168,12.8953888 61.1914436,12.2411865 C60.578508,11.5991191 60.2596195,10.7831191 60.2596195,9.8398382 C60.2596195,8.88792809 60.578508,8.08082697 61.1914436,7.43471461 C61.8168,6.76729888 62.6190166,6.44019775 63.5700119,6.44019775 C64.516957,6.44019775 65.3232239,6.76729888 65.9634311,7.43471461 C66.6082286,8.08918652 66.9317074,8.8922427 66.9317074,9.8398382 C66.9317074,10.7790742 66.6082286,11.5907596 65.9634311,12.2411865 C65.3294342,12.8953888 64.5231673,13.2354337 63.5700119,13.2354337 L63.5700119,13.2354337 Z M60.578508,39.3792539 L66.563406,39.3792539 L66.563406,17.2129618 L60.578508,17.2129618 L60.578508,39.3792539 Z" id="Fill-38" fill="#EE8113"></path>
                        <path d="M66.8870468,16.9027955 L66.2571002,16.9027955 L60.8891881,16.9027955 L60.2595115,16.9027955 L60.2595115,17.5276045 L60.2595115,39.0690876 L60.2595115,39.6938966 L60.8891881,39.6938966 L66.2571002,39.6938966 L66.8870468,39.6938966 L66.8870468,39.0690876 L66.8870468,17.5276045 L66.8870468,16.9027955 Z M63.5699039,6.12571685 C62.5316936,6.12571685 61.6573827,6.49542472 60.9658725,7.22216629 C60.2892132,7.92328989 59.9530436,8.80724494 59.9530436,9.83978427 C59.9530436,10.8682787 60.2892132,11.7481888 60.9658725,12.4619865 C61.6509024,13.1760539 62.5316936,13.5457618 63.5699039,13.5457618 C64.6145947,13.5457618 65.4956559,13.1760539 66.1955366,12.4663011 C66.891097,11.7436045 67.2442776,10.8642337 67.2442776,9.83978427 C67.2442776,8.80724494 66.891097,7.92328989 66.1912163,7.20949213 C65.4956559,6.49137978 64.6145947,6.12571685 63.5699039,6.12571685 L63.5699039,6.12571685 Z M60.8891881,39.0690876 L66.2571002,39.0690876 L66.2571002,17.5276045 L60.8891881,17.5276045 L60.8891881,39.0690876 Z M63.5699039,6.75484045 C64.4380044,6.75484045 65.1635366,7.05227865 65.7424502,7.65146966 C66.323254,8.25066067 66.6146009,8.97308764 66.6146009,9.83978427 C66.6146009,10.7027056 66.323254,11.4337618 65.7424502,12.020009 C65.1635366,12.6235146 64.4380044,12.9209528 63.5699039,12.9209528 C62.6999133,12.9209528 61.989232,12.6235146 61.4230091,12.020009 C60.8551661,11.4337618 60.5784,10.7027056 60.5784,9.83978427 C60.5784,8.97308764 60.8551661,8.25066067 61.4230091,7.65146966 C61.989232,7.05227865 62.6999133,6.75484045 63.5699039,6.75484045 L63.5699039,6.75484045 Z" id="Fill-40" fill="#FEFEFE"></path>
                        <path d="M81.1569444,21.2757573 C80.4546336,21.2757573 79.8314374,21.4585888 79.2970763,21.8113079 C78.7632553,22.1683416 78.2993683,22.6057348 77.9461878,23.1116225 C77.588957,23.6385438 77.3165111,24.152791 77.1145394,24.7136899 C76.969811,25.1047011 76.8739554,25.4320719 76.8015912,25.7125213 L84.6844295,25.1856 C84.6568879,24.9091955 84.6036948,24.5818247 84.5226901,24.2336899 C84.4057733,23.7404764 84.2143322,23.2901393 83.9375661,22.8524764 C83.6651203,22.4318022 83.2973589,22.0534652 82.835632,21.7390382 C82.4017168,21.4372854 81.8333338,21.2757573 81.1569444,21.2757573 M80.4929758,39.9148584 C78.9738675,39.9148584 77.588957,39.6387236 76.3549852,39.0861843 C75.1210135,38.5379596 74.0250198,37.7518921 73.1145268,36.7487461 C72.2164546,35.7714876 71.5122537,34.568791 71.0229852,33.1875775 C70.5337168,31.8149933 70.2890826,30.2849258 70.2890826,28.6531955 C70.2890826,27.2253303 70.555048,25.7761618 71.0783385,24.3442517 C71.6167498,22.9204315 72.3676634,21.6244315 73.3102882,20.4980494 C74.2634436,19.3635775 75.4166807,18.4329708 76.7443479,17.7445213 C78.1079272,17.0261393 79.5738424,16.6734202 81.2058173,16.6734202 C83.0165425,16.6734202 84.5437513,17.0940944 85.7269601,17.9357124 C86.9055786,18.7727461 87.8290323,19.7842517 88.4778801,20.9230382 C89.1269978,22.0491506 89.5908848,23.2178697 89.8587403,24.4035775 C90.1098549,25.567982 90.2418926,26.5368809 90.2418926,27.2676674 C90.2418926,27.4378247 90.231092,27.5780494 90.214081,27.679982 C90.2013903,27.7649258 90.1949099,27.8118472 90.1949099,27.8415101 C90.1565677,28.0157124 90.1503573,28.0540045 90.1503573,28.062364 L90.1503573,28.2198472 L89.1972019,29.0142742 L76.6506524,29.2736899 C76.6760339,29.8599371 76.7783699,30.4637124 76.9376791,31.0712629 C77.1461312,31.8023191 77.46961,32.4907685 77.9208063,33.1153079 C78.3655221,33.7314876 78.9738675,34.2371056 79.7207309,34.6281169 C80.4675943,35.0277573 81.4185896,35.2232629 82.5526556,35.2232629 C83.1504703,35.2232629 83.7269538,35.1596225 84.3058675,35.0277573 C84.8888314,34.8958921 85.4248126,34.7642966 85.948373,34.6070831 C86.4865143,34.4369258 87.031406,34.2244315 87.5501061,33.9609708 L87.8185017,33.8291056 L89.6332772,37.1694202 L89.3908031,37.3182742 C88.5715755,37.8365663 87.6969947,38.2828584 86.7759711,38.6398921 C86.0099366,38.9629483 85.0864829,39.2603865 83.9842788,39.5238472 C82.8950355,39.7873079 81.7247874,39.9148584 80.4929758,39.9148584" id="Fill-42" fill="#EE8113"></path>
                        <path d="M77.2251108,25.3723955 C77.2783039,25.2025079 77.3420276,25.0196764 77.4122317,24.8198562 C77.5974625,24.2888899 77.8653181,23.7916315 78.2036477,23.2900584 C78.5314468,22.8141034 78.9548314,22.410418 79.4694813,22.0663281 C79.9568597,21.7519011 80.5058016,21.5901034 81.1568094,21.5901034 C81.7654248,21.5901034 82.2738644,21.7262831 82.6526964,21.9981034 C83.0801312,22.2914966 83.4249413,22.6355865 83.6695755,23.0222831 C83.9269005,23.4302831 84.108081,23.8466427 84.2141972,24.301564 C84.2695504,24.5056989 84.3057325,24.7138787 84.331384,24.8967101 L77.2251108,25.3723955 Z M81.2056823,16.363227 C79.5377953,16.363227 77.9825049,16.7286202 76.5951642,17.463991 C75.2313149,18.1777888 74.0526964,19.1296989 73.0741595,20.2941034 C72.101833,21.4501483 71.3336383,22.7760809 70.7806462,24.233609 C70.2462851,25.7081258 69.9741093,27.1869573 69.9741093,28.6531146 C69.9741093,30.3190921 70.2252239,31.8828674 70.7209727,33.2980584 C71.225362,34.7132494 71.9549444,35.9496539 72.8824484,36.9654742 C73.8250732,37.9982831 74.9486085,38.8056539 76.2376634,39.3708674 C77.5016069,39.9401258 78.9335002,40.2292045 80.4931108,40.2292045 C81.7462537,40.2292045 82.9397231,40.097609 84.056778,39.8341483 C85.1822035,39.5620584 86.1078173,39.2603056 86.9100339,38.9205303 C87.8310575,38.5678112 88.7248094,38.1215191 89.5545677,37.5859685 L90.0503165,37.2758562 L89.76734,36.761609 L88.2395912,33.9441708 L87.9547246,33.4086202 L87.4076728,33.6807101 C86.9057137,33.931227 86.3759429,34.148036 85.8483322,34.3092944 C85.3439429,34.4624629 84.8141721,34.5986427 84.2503793,34.721609 C83.6760559,34.8491596 83.1206336,34.9130697 82.5525206,34.9130697 C81.4694876,34.9130697 80.565475,34.7259236 79.8653243,34.3562157 C79.1611234,33.9824629 78.5973306,33.5019236 78.1761061,32.9283506 C77.7400308,32.3291596 77.4400433,31.700036 77.2461721,30.999182 C77.1144044,30.5102831 77.0228691,30.0386427 76.9845268,29.583991 L89.0971611,29.3288899 L89.3139837,29.3205303 L89.4865237,29.180036 L90.2417576,28.5554966 L90.4672207,28.3643056 L90.4672207,28.0622831 C90.4672207,28.0622831 90.4780214,28.0498787 90.4780214,28.0285753 L90.5096132,27.9436315 L90.5096132,27.8416989 C90.5096132,27.8247101 90.5120433,27.7990921 90.5182537,27.7648449 L90.5290543,27.7181933 C90.5439052,27.6035865 90.5544358,27.4420584 90.5544358,27.2678562 C90.5544358,26.5071371 90.4226681,25.5252944 90.1610229,24.3355416 C89.8885771,23.1201708 89.4141595,21.9217888 88.7501909,20.7657438 C88.0756917,19.5886652 87.1206462,18.5474966 85.9077356,17.6848449 C84.6629633,16.8052045 83.0801312,16.363227 81.2056823,16.363227 L81.2056823,16.363227 Z M76.4102035,26.0568 L85.0058832,25.4786427 C85.0058832,25.1259236 84.9545802,24.6839461 84.8249727,24.1613393 C84.7077859,23.6384629 84.4971736,23.1498337 84.1993463,22.6825079 C83.9036791,22.2235416 83.5099962,21.8241708 83.0164075,21.4841258 C82.5271391,21.1357213 81.9015127,20.965564 81.1568094,20.965564 C80.3864546,20.965564 79.7100653,21.1653843 79.1249413,21.5477663 C78.5398173,21.9301483 78.0675598,22.3891146 77.6889978,22.9289798 C77.3166462,23.4728899 77.0228691,24.0294742 76.8187372,24.6033169 C76.6100151,25.1938787 76.4674468,25.6741483 76.4102035,26.0568 L76.4102035,26.0568 Z M81.2056823,16.9837213 C82.9651046,16.9837213 84.4056383,17.3874067 85.5461846,18.1947775 C86.6778204,19.0021483 87.565362,19.958373 88.201519,21.0804404 C88.8503667,22.1938787 89.2926524,23.3283506 89.5524075,24.4717213 C89.8035221,25.6188674 89.9333997,26.5581034 89.9333997,27.2678562 C89.9333997,27.4167101 89.9182788,27.5396764 89.9096383,27.6289348 C89.8885771,27.7181933 89.8780465,27.7861483 89.8780465,27.8416989 C89.852395,27.9436315 89.8375441,28.0115865 89.8375441,28.0622831 L89.07799,28.700036 L76.3291987,28.9678112 C76.3291987,29.6562607 76.4250543,30.3786876 76.6461972,31.1520809 C76.8484389,31.9297888 77.1908188,32.6435865 77.6630763,33.302373 C78.1482945,33.9611596 78.7782411,34.4921258 79.5739774,34.9044404 C80.3610732,35.3210697 81.3463604,35.537609 82.5525206,35.537609 C83.1759868,35.537609 83.7802819,35.4696539 84.3802568,35.3334742 C84.9799617,35.2018787 85.5248534,35.0616539 86.0354531,34.9044404 C86.5970857,34.7345528 87.1481878,34.5091146 87.6906493,34.241609 L89.2183981,37.0633618 C88.4375127,37.5606202 87.5864232,37.9896539 86.6629695,38.3510022 C85.8885645,38.678373 84.9715912,38.9628674 83.9120496,39.2263281 C82.8481878,39.4814292 81.7100716,39.6003506 80.4931108,39.6003506 C79.0247655,39.6003506 77.6889978,39.3409348 76.488778,38.7970247 C75.2739774,38.2660584 74.2292867,37.5136989 73.3528157,36.5448 C72.4698644,35.5802157 71.7891548,34.4158112 71.3101469,33.0769348 C70.8422097,31.7383281 70.5997356,30.2681258 70.5997356,28.6531146 C70.5997356,27.255182 70.8613808,25.8486202 71.3763008,24.4544629 C71.9060716,23.0522157 72.6316038,21.7985528 73.5507372,20.6934742 C74.4741909,19.5970247 75.5844954,18.6963506 76.8889413,18.0205753 C78.1823165,17.3321258 79.6144797,16.9837213 81.2056823,16.9837213 L81.2056823,16.9837213 Z" id="Fill-44" fill="#FEFEFE"></path>
                        <path d="M93.5522851,39.3792809 L93.5522851,17.2129888 L99.1202788,17.2129888 L99.432957,20.3621124 C99.8396006,19.7968989 100.288367,19.2912809 100.777635,18.8576629 C101.367079,18.326427 102.06291,17.8334831 102.837045,17.3874607 C103.660593,16.911236 104.618068,16.6733933 105.67977,16.6733933 C105.926565,16.6733933 106.169039,16.6860674 106.400982,16.6990112 C106.630495,16.716 106.845698,16.7413483 106.996637,16.7753258 C107.111393,16.788 107.237221,16.8093034 107.362778,16.8349213 L107.866897,16.9241798 L106.36696,22.4401348 L105.862571,22.4401348 C105.760505,22.4401348 105.641428,22.4317753 105.50939,22.4145169 C105.398684,22.4018427 105.262596,22.3934831 105.101127,22.3934831 C104.481711,22.3934831 103.881736,22.4954157 103.337114,22.7162697 C102.74767,22.9290337 102.209528,23.2008539 101.735111,23.5069213 C101.256373,23.8170337 100.811657,24.1613933 100.409604,24.5267865 C100.052103,24.8711461 99.7650763,25.1685843 99.5520339,25.4490337 L99.5520339,39.3792809 L93.5522851,39.3792809 Z" id="Fill-46" fill="#EE8113"></path>
                        <path d="M105.679662,16.363173 C104.562607,16.363173 103.550048,16.6139596 102.688428,17.1198472 C101.879731,17.5742292 101.17553,18.0801169 100.571235,18.624027 C100.252077,18.9131056 99.9520892,19.2145888 99.6650625,19.5546337 L99.4606606,17.4639371 L99.4012571,16.9027685 L98.8371943,16.9027685 L93.8691755,16.9027685 L93.2438192,16.9027685 L93.2438192,17.5275775 L93.2438192,39.0690607 L93.2438192,39.6938697 L93.8691755,39.6938697 L99.2395177,39.6938697 L99.8691943,39.6938697 L99.8691943,39.0690607 L99.8691943,25.555173 C100.060635,25.3130157 100.30959,25.0452404 100.626588,24.7521169 C101.009741,24.4034427 101.439336,24.0677124 101.907543,23.7702742 C102.360629,23.472836 102.877709,23.2180045 103.437182,23.0095551 C103.966953,22.8100045 104.511574,22.7121169 105.101019,22.7121169 C105.251957,22.7121169 105.366984,22.7164315 105.46905,22.7291056 C105.620259,22.7417798 105.749866,22.7547236 105.862733,22.7547236 L106.130858,22.7547236 L106.607436,22.7547236 L106.732723,22.2873978 L108.083882,17.3363865 L108.254262,16.6735551 L107.581923,16.554364 L107.418023,16.5290157 C107.298946,16.5033978 107.173389,16.4737348 107.037301,16.4567461 C106.886092,16.4311281 106.688171,16.4055101 106.426526,16.3885213 C106.184051,16.367218 105.926457,16.363173 105.679662,16.363173 M105.679662,16.9836674 C105.922136,16.9836674 106.15408,16.9963416 106.375493,17.0092854 C106.592585,17.0262742 106.784026,17.0473079 106.934965,17.0812854 C107.115876,17.1025888 107.298946,17.1408809 107.475267,17.1705438 L106.130858,22.1299146 L105.862733,22.1299146 C105.775518,22.1299146 105.664811,22.1215551 105.545734,22.1045663 C105.428818,22.0916225 105.279769,22.0875775 105.101019,22.0875775 C104.44164,22.0875775 103.816014,22.1938247 103.216039,22.4233079 C102.626595,22.6401169 102.073332,22.9205663 101.558413,23.2476674 C101.060774,23.5747685 100.607417,23.9234427 100.198884,24.2974652 C99.79467,24.6714876 99.4776716,25.0196225 99.2395177,25.3469933 L99.2395177,39.0690607 L93.8691755,39.0690607 L93.8691755,17.5275775 L98.8371943,17.5275775 L99.1968553,21.1483416 L99.2756998,21.1483416 C99.760648,20.3746787 100.324441,19.6821843 100.981929,19.0956674 C101.552202,18.5857348 102.224541,18.1054652 102.988416,17.6637573 C103.771191,17.2131506 104.662783,16.9836674 105.679662,16.9836674" id="Fill-48" fill="#FEFEFE"></path>
                        <path d="M118.881594,21.3649618 C117.375176,21.3649618 116.188187,21.9428494 115.330617,23.0819056 C114.454146,24.2376809 114.00511,25.9632539 114.00511,28.2028045 C114.00511,30.4167371 114.483578,32.1676584 115.415672,33.4043326 C116.353977,34.6280629 117.481562,35.223209 118.881594,35.223209 C120.405022,35.223209 121.557989,34.6709393 122.413399,33.5148944 C123.2815,32.363164 123.719735,30.6335461 123.719735,28.3770067 C123.719735,26.1628045 123.249638,24.4205124 122.324024,23.1795236 C121.426222,21.9770966 120.268664,21.3649618 118.881594,21.3649618 M118.841091,39.9148045 C117.039007,39.9148045 115.419722,39.6044225 114.039132,39.0011865 C112.639371,38.3806921 111.464803,37.5350292 110.522178,36.4811865 C109.600884,35.4357034 108.879672,34.1777258 108.400934,32.7541753 C107.932727,31.3389843 107.694573,29.8132315 107.694573,28.2028045 C107.694573,26.536827 107.958379,24.9814112 108.473299,23.5834787 C108.990379,22.1893213 109.741292,20.9486022 110.703088,19.9244225 C111.681625,18.8959281 112.841073,18.109591 114.241104,17.5276584 C115.621964,16.9581303 117.179415,16.6733663 118.881594,16.6733663 C120.670988,16.6733663 122.287842,16.9794337 123.689763,17.5912989 C125.070624,18.2077483 126.253832,19.0531416 127.196187,20.1069843 C128.128011,21.1651416 128.843013,22.4233888 129.31743,23.8466697 C129.791848,25.2365124 130.028112,26.7706247 130.028112,28.3770067 C130.028112,30.0683326 129.766467,31.6237483 129.247226,33.0046921 C128.723936,34.4158382 127.966542,35.6438831 127.004746,36.6637483 C126.04295,37.6965573 124.849481,38.5039281 123.472941,39.0691416 C122.117462,39.6257258 120.555961,39.9148045 118.841091,39.9148045" id="Fill-50" fill="#EE8113"></path>
                        <path d="M118.881594,34.9129888 C117.587949,34.9129888 116.534617,34.3604494 115.666787,33.2089888 C114.768985,32.0316404 114.326429,30.3486742 114.326429,28.2026966 C114.326429,26.0313708 114.745493,24.3694382 115.577412,23.2689438 C116.387999,22.1978427 117.466711,21.6795506 118.881594,21.6795506 C120.181449,21.6795506 121.21966,22.2320899 122.072909,23.3665618 C122.958021,24.5522697 123.400576,26.2395506 123.400576,28.3768989 C123.400576,30.5654831 122.983672,32.2314607 122.168765,33.3362697 C121.366548,34.394427 120.298636,34.9129888 118.881594,34.9129888 M118.881594,16.3631461 C117.143233,16.3631461 115.54744,16.6522247 114.124187,17.234427 C112.675283,17.8376629 111.483974,18.649618 110.481675,19.7161348 C109.486127,20.7699775 108.713613,22.0322697 108.179792,23.472809 C107.654071,24.9049888 107.383785,26.494382 107.383785,28.2026966 C107.383785,29.8346966 107.624369,31.4071011 108.103107,32.8476404 C108.598856,34.3178427 109.339239,35.6097978 110.294554,36.6892584 C111.25392,37.7773483 112.473311,38.6483596 113.909255,39.2858427 C115.341148,39.9106517 116.996614,40.2291236 118.841091,40.2291236 C120.594303,40.2291236 122.198467,39.9316854 123.598498,39.3494831 C125.01311,38.7759101 126.238711,37.9429213 127.236689,36.8761348 C128.230347,35.8309213 129.000432,34.5602697 129.538843,33.1154157 C130.068614,31.6959101 130.34106,30.1065169 130.34106,28.3768989 C130.34106,26.7365393 130.093996,25.172764 129.615258,23.7405843 C129.13031,22.2830562 128.396407,20.9908315 127.434611,19.8989663 C126.456074,18.8108764 125.243164,17.9355506 123.815321,17.3107416 C122.372897,16.6818876 120.71122,16.3631461 118.881594,16.3631461 M118.881594,35.5375281 C120.498448,35.5375281 121.758071,34.9299775 122.666674,33.7059775 C123.572846,32.4822472 124.026203,30.7057079 124.026203,28.3768989 C124.026203,26.0950112 123.543145,24.2974382 122.577299,23.0011685 C121.609022,21.7005843 120.36884,21.0590562 118.881594,21.0590562 C117.279321,21.0590562 116.005116,21.6668764 115.083823,22.8862921 C114.156049,24.1146067 113.698642,25.8779326 113.698642,28.2026966 C113.698642,30.4975281 114.185751,32.2953708 115.175088,33.5954157 C116.156055,34.8876404 117.390027,35.5375281 118.881594,35.5375281 M118.881594,16.9836404 C120.641016,16.9836404 122.198467,17.2897079 123.557996,17.8802697 C124.919685,18.4797303 126.04754,19.2868315 126.960193,20.3196404 C127.872846,21.3438202 128.562197,22.5548764 129.025814,23.9404045 C129.48349,25.321618 129.715164,26.8044944 129.715164,28.3768989 C129.715164,30.021573 129.459999,31.5303371 128.949399,32.9029213 C128.440959,34.2668764 127.719478,35.4485393 126.779283,36.4511461 C125.845299,37.4499775 124.702862,38.2276854 123.362234,38.7759101 C122.021876,39.3284494 120.515459,39.6002697 118.841091,39.6002697 C117.079509,39.6002697 115.515848,39.2985169 114.16658,38.7122697 C112.811641,38.1084944 111.675415,37.3054382 110.764652,36.2728989 C109.851999,35.252764 109.166969,34.0373933 108.705242,32.6478202 C108.243515,31.2668764 108.009682,29.7794157 108.009682,28.2026966 C108.009682,26.566382 108.254316,25.0622022 108.768966,23.6936629 C109.273085,22.3213483 109.998617,21.1356404 110.941512,20.1411236 C111.883867,19.1382472 113.017933,18.3732135 114.360451,17.8082697 C115.707289,17.2557303 117.211277,16.9836404 118.881594,16.9836404" id="Fill-52" fill="#FEFEFE"></path>
                        <path d="M16.6178732,13.6986876 C16.0178983,13.6986876 15.4138732,13.7539685 14.8222688,13.8559011 C11.9582122,14.3488449 9.63931743,16.1634067 8.45016829,18.8532944 C7.3117821,21.4501483 7.1414022,24.7691596 7.98628132,27.7098337 C8.66267064,30.0513169 9.99681821,31.9634966 11.7710914,33.0939236 C13.1562719,33.9824629 14.8562907,34.4411596 16.6775466,34.4411596 C17.2840019,34.4411596 17.8945074,34.3904629 18.5028527,34.2839461 C20.7796251,33.8972494 22.7240082,32.6988674 23.9901118,30.9225978 C25.2132829,29.1929798 25.8389093,26.9321258 25.8389093,24.2082607 C25.8389093,21.8794517 25.3496408,18.5984629 23.0177852,16.2270472 C21.4157821,14.5993618 19.14333,13.6986876 16.6178732,13.6986876 L16.6178732,13.6986876 Z M32.9133206,47.0457438 C32.1132641,47.0457438 31.2114116,46.9861483 30.2239642,46.8801708 C28.0049752,46.6293843 25.868611,46.0811596 23.890206,45.231182 C21.1922091,44.0921258 18.6648622,42.3584629 16.5584697,40.2165303 C13.8369815,40.2122157 11.2926235,39.6003506 9.39873344,38.5039011 C6.62243203,36.8805303 4.626746,34.9300584 3.12896892,32.3590921 C1.55855761,29.6603056 0.822494819,26.6176989 0.922400628,23.319991 C1.11195165,16.7030022 5.00530801,11.0810697 10.8308967,8.98983371 C12.641352,8.33994607 14.5733143,8.00853034 16.5541495,8.00853034 C19.9134148,8.00853034 23.1986958,9.00277753 25.8048873,10.8216539 C29.9409878,13.6986876 32.4175717,18.7047101 32.4175717,24.2082607 C32.4175717,27.5143281 31.5494713,30.6208449 29.9004854,33.1874966 C29.068837,34.4710921 28.0560082,35.605564 26.8919705,36.5321258 C26.5155686,36.8381933 26.1280961,37.1186427 25.7284728,37.4031371 C27.3496471,40.6924854 30.8474305,43.3953169 36.4151542,45.6475416 L36.8388088,45.8220135 L36.532341,46.1534292 C35.9515372,46.7566652 34.7793991,47.0457438 32.9195309,47.0457438 L32.9133206,47.0457438 Z" id="Fill-54" fill="#A90828"></path>
                        <path d="M16.6775736,34.1268674 C14.911671,34.1268674 13.2734857,33.6805753 11.937178,32.8262831 C10.2349991,31.7427775 8.93946374,29.8899236 8.28413564,27.6247551 C7.46274788,24.7477213 7.63096766,21.5139236 8.74154223,18.9809798 C9.88181852,16.3887101 12.1202487,14.6334742 14.8798091,14.1661483 C15.4562926,14.0682607 16.0392565,14.0172944 16.6179002,14.0172944 C19.0561419,14.0172944 21.2475893,14.8802157 22.7966694,16.4523506 C25.0518405,18.747182 25.5219378,21.9343281 25.5219378,24.2081258 C25.5219378,26.8683506 24.921963,29.069609 23.7325438,30.7482607 C22.5199033,32.4565753 20.6435642,33.5999461 18.4477965,33.9823281 C17.8583523,34.0802157 17.2648578,34.1268674 16.6775736,34.1268674 M16.5541765,7.69369888 C14.5368892,7.69369888 12.573335,8.02969888 10.7180571,8.70115955 C4.77582166,10.8344629 0.801190581,16.5669573 0.609749451,23.3114966 C0.503363265,26.6644854 1.2607573,29.762373 2.85655008,32.5161708 C4.3842989,35.1337888 6.41373689,37.1185079 9.24566154,38.7758562 C11.1498122,39.8809348 13.6944402,40.5011596 16.426459,40.5267775 C18.5455422,42.6514517 21.0774794,44.3810697 23.7646757,45.5201258 C25.7795328,46.3784629 27.9410085,46.9353169 30.1837589,47.1944629 C31.1855171,47.3050247 32.1024904,47.3643506 32.9195579,47.3643506 C34.864211,47.3643506 36.119514,47.0372494 36.7535108,46.3657888 L37.3918279,45.7070022 L36.532368,45.3629124 C31.1814669,43.1913169 27.7644182,40.616036 26.1281231,37.5052045 C26.4602424,37.2673618 26.7710305,37.0292494 27.0837086,36.774418 C28.277178,35.8225079 29.3113381,34.6707775 30.1667479,33.3534742 C31.8408452,30.7355865 32.7281168,27.5737888 32.7281168,24.2081258 C32.7281168,18.5983281 30.2091403,13.5030472 25.9750242,10.5666876 C23.32401,8.7095191 19.9795956,7.69369888 16.5541765,7.69369888 M16.6775736,34.7557213 C17.3032,34.7557213 17.939357,34.7047551 18.5541827,34.5985079 C20.8220446,34.1991371 22.8984653,33.0007551 24.2431435,31.1052944 C25.6580257,29.1035865 26.1518845,26.6261933 26.1518845,24.2081258 C26.1518845,21.2501933 25.3645187,18.1649798 23.2432754,16.0146876 C21.4943837,14.2297888 19.0709928,13.3884404 16.6179002,13.3884404 C16.0052345,13.3884404 15.3798782,13.448036 14.7731529,13.5456539 C11.7859692,14.0555865 9.38849984,15.9637213 8.16694882,18.7258787 C6.95214819,21.5009798 6.85224239,24.9049348 7.69064113,27.7946427 C8.32463799,30.0215191 9.63097394,32.0954966 11.5947981,33.3575191 C13.1114763,34.3177888 14.8968201,34.7557213 16.6775736,34.7557213 M16.5541765,8.32282247 C19.762503,8.32282247 22.9773099,9.23644045 25.6177934,11.0725753 C29.8772911,14.0342831 32.1024904,19.0999011 32.1024904,24.2081258 C32.1024904,27.3316315 31.3324057,30.3699236 29.6388672,33.0131596 C28.8431309,34.2501034 27.8519033,35.3678562 26.6986662,36.2898337 C26.2431498,36.655227 25.7900634,36.9825978 25.3240163,37.2970247 C27.2602989,41.4786876 31.8856678,44.1475416 36.3069049,45.9321708 C35.6982895,46.5742382 34.2812471,46.7354966 32.9195579,46.7354966 C31.8559661,46.7354966 30.8431372,46.633564 30.2601733,46.5742382 C28.1070681,46.3274966 26.0006757,45.7879011 24.0093099,44.9422382 C21.2581199,43.7821483 18.7710053,42.0395865 16.6902644,39.8979236 L16.5838782,39.8979236 C14.1137746,39.8979236 11.5669865,39.3963506 9.55860973,38.235991 C6.95214819,36.7107775 4.9329708,34.8193618 3.40117174,32.1974292 C1.81401947,29.4689798 1.13736013,26.4816539 1.23537582,23.3284854 C1.41412622,17.1238112 4.96294254,11.4207101 10.9286694,9.29172135 C12.7242738,8.64156404 14.6392251,8.32282247 16.5541765,8.32282247" id="Fill-56" fill="#FEFEFE"></path>
                        <path d="M139.551322,46.5867236 C138.327881,46.5867236 137.27887,46.1533753 136.428051,45.2904539 C135.572641,44.444791 135.138726,43.391218 135.138726,42.167218 C135.138726,40.9475326 135.572641,39.8934202 136.428051,39.0393978 C137.27266,38.1851056 138.327881,37.7517573 139.551322,37.7517573 C140.780974,37.7517573 141.840516,38.1851056 142.685395,39.0393978 C143.536214,39.8934202 143.970399,40.9475326 143.970399,42.167218 C143.970399,43.391218 143.536214,44.444791 142.685395,45.2904539 C141.834035,46.1533753 140.774764,46.5867236 139.551322,46.5867236" id="Fill-58" fill="#EE8113"></path>
                        <path d="M139.551322,37.4330427 C138.236346,37.4330427 137.1066,37.9046831 136.204748,38.8142562 C135.293985,39.7319191 134.826048,40.8626157 134.826048,42.1672449 C134.826048,43.4802337 135.293985,44.6020315 136.204748,45.5156494 C137.1066,46.4295371 138.236346,46.9014472 139.551322,46.9014472 C140.868189,46.9014472 141.991724,46.4295371 142.913018,45.5156494 C143.823511,44.6020315 144.289558,43.4802337 144.289558,42.1672449 C144.289558,40.8626157 143.823511,39.7362337 142.913018,38.8142562 C142.000095,37.9046831 140.868189,37.4330427 139.551322,37.4330427 M139.551322,38.0662112 C140.700239,38.0662112 141.668246,38.4572225 142.468302,39.2562337 C143.259718,40.0549753 143.659611,41.0241438 143.659611,42.1672449 C143.659611,43.3060315 143.259718,44.2832899 142.468302,45.0739416 C141.668246,45.8729528 140.700239,46.2723236 139.551322,46.2723236 C138.412936,46.2723236 137.44493,45.8729528 136.653514,45.0739416 C135.849407,44.2832899 135.444924,43.3060315 135.444924,42.1672449 C135.444924,41.0241438 135.849407,40.0549753 136.653514,39.2562337 C137.44493,38.4572225 138.412936,38.0662112 139.551322,38.0662112" id="Fill-60" fill="#FEFEFE"></path>
                        <path d="M137.687431,35.2443506 C135.636392,26.7238112 132.428065,9.97181124 132.383513,8.40776629 C132.33653,6.49531685 133.051532,4.68938427 134.387569,3.31248539 C135.727927,1.93558652 137.506521,1.18322697 139.406621,1.18322697 C141.351274,1.18322697 143.230043,2.00354157 144.584982,3.43572135 C145.881057,4.81262022 146.532065,6.58484494 146.419199,8.42044045 C146.353315,9.57648539 142.987299,27.0681708 141.234357,35.1720809 L141.159833,35.5164404 L140.821503,35.401564 C140.4235,35.2572944 140.004436,35.1933843 139.551349,35.1933843 C139.032109,35.1933843 138.559852,35.2826427 138.106495,35.4611596 L137.774916,35.6054292 L137.687431,35.2443506 Z" id="Fill-62" fill="#EE8113"></path>
                        <path d="M139.406594,0.868880899 C137.45114,0.868880899 135.540779,1.68056629 134.159919,3.0914427 C132.764208,4.52766742 132.017344,6.41476854 132.074858,8.4164764 C132.10888,9.98861124 135.328007,26.7834876 137.381206,35.3210157 L137.551316,36.0264539 L138.227976,35.754364 C138.634349,35.5885213 139.068264,35.5078921 139.551322,35.5078921 C139.970387,35.5078921 140.353539,35.5674876 140.725891,35.6950382 L141.39823,35.9328809 L141.542688,35.2358022 C143.206525,27.5312629 146.651115,9.75049888 146.73185,8.43751011 C146.853357,6.51265618 146.172377,4.66384719 144.812848,3.2230382 C143.406337,1.72317303 141.432252,0.868880899 139.406594,0.868880899 M139.406594,1.49368989 C143.104459,1.49368989 146.344917,4.59157753 146.108654,8.40353258 C146.036289,9.55094831 142.681074,26.9957124 140.932183,35.1082517 C140.500158,34.9553528 140.044911,34.8790382 139.551322,34.8790382 C138.98753,34.8790382 138.468289,34.9766562 137.989552,35.1721618 C135.906651,26.5070831 132.734506,9.89099326 132.700484,8.40353258 C132.598148,4.58753258 135.702519,1.49368989 139.406594,1.49368989" id="Fill-64" fill="#FEFEFE"></path>
                    </g>
                </g>
            </g>
        </g>
    </g>
</svg>