<?xml version="1.0" encoding="UTF-8"?>
<svg  viewBox="0 0 140 36" version="1.1" xmlns="http://www.w3.org/2000/svg" xmlns:xlink="http://www.w3.org/1999/xlink">
    <!-- Generator: sketchtool 40.1 (33804) - http://www.bohemiancoding.com/sketch -->
    <title>E9FD1E18-FABF-4921-BF5D-E39F4D57911B</title>
    <desc>Created with sketchtool.</desc>
    <defs></defs>
    <g id="Page-1" stroke="none" stroke-width="1" fill="none" fill-rule="evenodd">
        <g id="1_datos" transform="translate(-208.000000, -30.000000)">
            <g id="logo" transform="translate(208.000000, 30.000000)">
                <path d="M140,0 L29.889,0 C34.9635,3.72184653 38.2917,9.72446428 38.3721,16.5308342 C38.4756,25.3150202 33.1377,32.8834595 25.5132,36 L140,36 L140,0 Z" id="Fill-1" fill="#FF6600"></path>
                <path d="M0.0216,0 L0.0216,35.9975838 L17.9985484,36 C27.9517253,36 36.0216,27.9412722 36.0216,18.0006041 C36.0216,8.0599359 27.9517253,0.002416229 17.9985484,0.002416229 L0.0216,0 Z" id="Fill-4" fill="#C41230"></path>
                <path d="M94.2816,9.5622 C94.2816,10.0893 94.1034,10.5369 93.7479,10.9014 C93.3921,11.2659 92.9502,11.4471 92.421,11.4471 C91.8936,11.4471 91.455,11.2659 91.1097,10.9014 C90.7635,10.5369 90.591,10.0893 90.591,9.5622 C90.591,9.0327 90.7635,8.5857 91.1097,8.2221 C91.455,7.8579 91.8936,7.6743 92.421,7.6743 C92.9502,7.6743 93.3921,7.8579 93.7479,8.2221 C94.1034,8.5857 94.2816,9.0327 94.2816,9.5622" id="Fill-7" fill="#FEFEFE"></path>
                <path d="M76.6839,21.0293 C76.2177,21.0293 75.6999,21.0584 75.129,21.116 C74.5563,21.1754 74.0139,21.2876 73.5012,21.452 C72.9858,21.617 72.561,21.8585 72.2214,22.1789 C71.883,22.4981 71.7138,22.919 71.7138,23.4425 C71.7138,24.0242 71.9076,24.4691 72.2952,24.7799 C72.6825,25.0886 73.1079,25.2449 73.5729,25.2449 C73.9809,25.2449 74.3721,25.1678 74.7513,25.0115 C75.129,24.8555 75.4617,24.6809 75.7515,24.4874 C76.1016,24.275 76.4121,24.0242 76.6839,23.7332 L76.6839,21.0293 Z M76.9743,27.5705 L76.7115,25.8833 L76.6542,25.8833 C76.5171,26.0198 76.3296,26.1986 76.0875,26.4221 C75.8451,26.6444 75.5547,26.8673 75.216,27.0899 C74.8764,27.3134 74.4831,27.5063 74.0382,27.6713 C73.5921,27.8357 73.0983,27.9188 72.5559,27.9188 C72.0711,27.9188 71.5863,27.8216 71.1024,27.6269 C70.6176,27.4337 70.1838,27.1526 69.7956,26.7848 C69.4074,26.4167 69.0921,25.9622 68.8497,25.4189 C68.6091,24.8765 68.4876,24.2654 68.4876,23.5874 C68.4876,22.5218 68.769,21.6791 69.3303,21.0584 C69.8913,20.4398 70.584,19.9691 71.4084,19.6487 C72.2313,19.3301 73.1181,19.1219 74.0676,19.0235 C75.0159,18.9284 75.8895,18.8786 76.6839,18.8786 L76.6839,18.6176 C76.6839,17.6867 76.5036,16.9898 76.1454,16.526 C75.7872,16.0604 75.1515,15.8282 74.2422,15.8282 C73.7775,15.8282 73.3167,15.8816 72.8619,15.9881 C72.4068,16.094 71.9949,16.2053 71.6256,16.3226 C71.1999,16.4579 70.7829,16.6121 70.3764,16.7864 L69.5922,14.6942 C70.1346,14.423 70.7151,14.1803 71.3352,13.9679 C71.8392,13.7738 72.4152,13.6001 73.0659,13.4444 C73.7142,13.289 74.3586,13.2122 74.997,13.2122 C76.6044,13.2122 77.8422,13.6523 78.7029,14.5337 C79.5654,15.4154 79.9953,16.6508 79.9953,18.2396 L79.9953,27.5705 L76.9743,27.5705 Z" id="Fill-9" fill="#FEFEFE"></path>
                <polygon id="Fill-11" fill="#FEFEFE" points="90.6912 27.5705 94.1799 27.5705 94.1799 13.5611 90.6912 13.5611"></polygon>
                <path d="M114.5316,8.5622 C114.5316,9.0893 114.3546,9.5369 113.9982,9.9014 C113.6436,10.2659 113.2008,10.4471 112.6719,10.4471 C112.1445,10.4471 111.7056,10.2659 111.36,9.9014 C111.0135,9.5369 110.8392,9.0893 110.8392,8.5622 C110.8392,8.0327 111.0135,7.5857 111.36,7.2221 C111.7056,6.8579 112.1445,6.6743 112.6719,6.6743 C113.2008,6.6743 113.6436,6.8579 113.9982,7.2221 C114.3546,7.5857 114.5316,8.0327 114.5316,8.5622" id="Fill-13" fill="#FEFEFE"></path>
                <polygon id="Fill-14" fill="#FEFEFE" points="110.9409 27.5705 114.4296 27.5705 114.4296 13.5611 110.9409 13.5611"></polygon>
                <path d="M124.9398,21.0293 C124.4751,21.0293 123.957,21.0584 123.3861,21.116 C122.8128,21.1754 122.271,21.2876 121.7577,21.452 C121.2444,21.617 120.8172,21.8585 120.4782,22.1789 C120.1392,22.4981 119.97,22.919 119.97,23.4425 C119.97,24.0242 120.1638,24.4691 120.5517,24.7799 C120.939,25.0886 121.365,25.2449 121.8309,25.2449 C122.2368,25.2449 122.6295,25.1678 123.0063,25.0115 C123.3861,24.8555 123.72,24.6809 124.011,24.4874 C124.3596,24.275 124.6689,24.0242 124.9398,23.7332 L124.9398,21.0293 Z M125.2302,27.5705 L124.9686,25.8833 L124.9119,25.8833 C124.7754,26.0198 124.5858,26.1986 124.3449,26.4221 C124.1034,26.6444 123.8124,26.8673 123.4719,27.0899 C123.1335,27.3134 122.7399,27.5063 122.2962,27.6713 C121.8486,27.8357 121.3545,27.9188 120.8136,27.9188 C120.3297,27.9188 119.8443,27.8216 119.3598,27.6269 C118.8756,27.4337 118.4397,27.1526 118.0509,26.7848 C117.6642,26.4167 117.3489,25.9622 117.1065,25.4189 C116.8638,24.8765 116.7441,24.2654 116.7441,23.5874 C116.7441,22.5218 117.0252,21.6791 117.5862,21.0584 C118.1484,20.4398 118.8432,19.9691 119.6658,19.6487 C120.4878,19.3301 121.3749,19.1219 122.3244,19.0235 C123.2739,18.9284 124.146,18.8786 124.9398,18.8786 L124.9398,18.6176 C124.9398,17.6867 124.7613,16.9898 124.4031,16.526 C124.044,16.0604 123.4086,15.8282 122.499,15.8282 C122.0334,15.8282 121.5729,15.8816 121.1175,15.9881 C120.6633,16.094 120.2505,16.2053 119.8827,16.3226 C119.4561,16.4579 119.04,16.6121 118.6341,16.7864 L117.8484,14.6942 C118.3914,14.423 118.9716,14.1803 119.5926,13.9679 C120.096,13.7738 120.672,13.6001 121.3212,13.4444 C121.971,13.289 122.6154,13.2122 123.2544,13.2122 C124.8621,13.2122 126.0978,13.6523 126.96,14.5337 C127.8225,15.4154 128.2536,16.6508 128.2536,18.2396 L128.2536,27.5705 L125.2302,27.5705 Z" id="Fill-15" fill="#FEFEFE"></path>
                <polygon id="Fill-16" fill="#FEFEFE" points="86.9709 6.1781 83.4837 6.1781 83.4825 27.5612 86.9694 27.5612"></polygon>
                <path d="M65.958,16.9253 L58.959,16.9289 L58.959,19.8689 L62.4417,19.8689 L62.4417,24.4874 C62.2482,24.5285 62.0259,24.5663 61.7739,24.6047 C61.5612,24.6428 61.3029,24.6728 61.0038,24.6914 C60.7032,24.7115 60.3696,24.7205 60,24.7205 C59.0901,24.7205 58.2513,24.5465 57.4872,24.1982 C56.7216,23.849 56.0631,23.3705 55.5111,22.7603 C54.9588,22.1489 54.5271,21.4169 54.2175,20.5655 C53.9082,19.7132 53.7525,18.7727 53.7525,17.7458 C53.7525,16.6598 53.9325,15.677 54.2904,14.7959 C54.648,13.9142 55.1478,13.1633 55.7865,12.5432 C56.4264,11.9228 57.177,11.4443 58.0386,11.105 C58.902,10.766 59.8275,10.5962 60.8154,10.5962 C61.3392,10.5962 61.8189,10.6193 62.2536,10.6688 C62.6892,10.7171 63.0717,10.7711 63.4017,10.8284 C63.7704,10.9052 64.1184,10.9745 64.4478,11.0318 L65.4066,8.3003 C64.9614,8.1455 64.467,8.0087 63.924,7.8941 C63.4587,7.7963 62.9028,7.7003 62.2536,7.6025 C61.6044,7.5065 60.873,7.4573 60.0585,7.4573 C58.6833,7.4573 57.3807,7.6943 56.1507,8.1698 C54.9189,8.6435 53.8395,9.3266 52.9095,10.2188 C51.9798,11.1092 51.243,12.1841 50.7003,13.4444 C50.1588,14.7035 49.8867,16.1192 49.8867,17.6867 C49.8867,19.2572 50.1291,20.6717 50.613,21.9302 C51.0975,23.1899 51.7668,24.2654 52.6188,25.1567 C53.4708,26.048 54.4734,26.7305 55.6266,27.2057 C56.7798,27.6806 58.0158,27.9188 59.3334,27.9188 C60.1461,27.9188 60.9498,27.8456 61.7448,27.7004 C62.5392,27.5549 63.2469,27.3944 63.8661,27.2186 C64.6026,27.0086 65.3001,26.7743 65.9595,26.5235 L65.958,16.9253 Z" id="Fill-17" fill="#FEFEFE"></path>
                <path d="M108.3261,26.2142 C107.8218,26.5427 107.2794,26.8337 106.6977,27.0848 C106.1937,27.2993 105.6123,27.4919 104.955,27.6659 C104.2938,27.8402 103.6071,27.9281 102.8907,27.9281 C102.0768,27.9281 101.3067,27.7625 100.5807,27.4337 C99.8532,27.104 99.2184,26.6444 98.676,26.0537 C98.133,25.4624 97.7004,24.7502 97.3815,23.9165 C97.0644,23.0843 96.9036,22.1525 96.9036,21.1277 C96.9036,20.0612 97.0785,19.0541 97.4262,18.1043 C97.7748,17.1554 98.2635,16.3175 98.8944,15.5909 C99.5238,14.8631 100.2798,14.2877 101.1609,13.8614 C102.0432,13.4339 103.0164,13.2218 104.0823,13.2218 C104.5869,13.2218 105.0597,13.2644 105.5064,13.3514 C105.9507,13.4396 106.3581,13.5314 106.7274,13.6277 C107.1327,13.7447 107.5308,13.8707 107.9187,14.0057 L107.0187,16.3601 L106.4355,16.2149 C106.2633,16.1762 106.0539,16.1378 105.8121,16.0988 C105.5691,16.0604 105.2121,16.0397 104.9223,16.0397 C104.2836,16.0397 103.5954,16.1615 103.0521,16.4048 C102.5094,16.6469 102.0447,16.9856 101.6577,17.4212 C101.2692,17.8562 100.9647,18.3716 100.7421,18.9617 C100.5186,19.553 100.407,20.1968 100.407,20.894 C100.407,22.1339 100.7466,23.1317 101.4249,23.8874 C102.1038,24.6428 102.9942,25.0223 104.0982,25.0223 C104.4876,25.0223 105.0558,24.9926 105.4329,24.9353 C105.8121,24.8765 106.1457,24.8075 106.4355,24.7301 C106.7844,24.6533 107.094,24.5465 107.3673,24.4118 L108.3261,26.2142 Z" id="Fill-18" fill="#FEFEFE"></path>
                <path d="M23.2428,9.3366 L23.2425,9.3384 C23.2335,9.3441 22.9488,9.5259 22.2894,9.7287 C21.5229,9.9624 20.2527,10.2201 18.3234,10.2546 C18.3624,8.3382 18.6228,7.0728 18.8559,6.3147 C19.0392,5.7225 19.2033,5.4357 19.233,5.3877 C19.236,5.3832 19.2384,5.3793 19.2384,5.3793 L19.2333,5.3793 L19.2333,5.3787 C19.2333,4.6311 18.6273,4.0245 17.8794,4.0245 C17.1315,4.0245 16.5249,4.6311 16.5249,5.3787 L16.5249,5.3793 L16.5177,5.3793 C16.5177,5.3793 16.521,5.3844 16.5264,5.394 C16.5648,5.457 16.7244,5.7426 16.9014,6.3141 C17.1342,7.0704 17.3946,8.3334 17.4327,10.254 C15.4992,10.2174 14.2251,9.9564 13.4592,9.7227 C12.801,9.5196 12.5181,9.3384 12.5181,9.3384 L12.5181,9.3441 L12.5124,9.3366 C11.7606,9.3366 11.1507,9.9465 11.1507,10.6983 C11.1507,11.451 11.7606,12.06 12.5124,12.06 L12.5181,12.0567 L12.5181,12.0594 C12.5181,12.0594 12.7998,11.8746 13.4628,11.673 C14.2248,11.4393 15.4902,11.1801 17.4117,11.1435 C17.3112,13.2639 16.9359,14.4843 16.704,15.0471 C16.5603,15.3828 16.2174,16.0314 15.6639,16.1928 L15.666,16.1961 L17.8842,32.1915 L20.0898,16.1961 L20.0922,16.1928 C19.536,16.0311 19.1925,15.378 19.0485,15.0414 C19.0392,15.0204 19.0314,15.0012 19.023,14.9823 L19.023,14.982 C18.789,14.3949 18.4374,13.1916 18.3429,11.1444 C20.2611,11.1816 21.5292,11.4405 22.2939,11.6742 C22.9488,11.8734 23.2344,12.054 23.2425,12.0588 L23.2428,12.06 C23.9952,12.06 24.6042,11.451 24.6042,10.6983 C24.6042,9.9465 23.9952,9.3366 23.2428,9.3366" id="Fill-19" fill="#FEFEFE"></path>
            </g>
        </g>
    </g>
</svg>