<?xml version="1.0" encoding="UTF-8"?>
<svg width="104px" height="27px" viewBox="0 0 104 27" version="1.1" xmlns="http://www.w3.org/2000/svg" xmlns:xlink="http://www.w3.org/1999/xlink">
    <!-- Generator: sketchtool 41 (35326) - http://www.bohemiancoding.com/sketch -->
    <title>9557423B-395D-48E2-B479-715A09F335B2</title>
    <desc>Created with sketchtool.</desc>
    <defs></defs>
    <g id="Page-1" stroke="none" stroke-width="1" fill="none" fill-rule="evenodd">
        <g id="01-Ingresá-tus-datos" transform="translate(-14.000000, -16.000000)">
            <g id="logo" transform="translate(14.000000, 16.000000)">
                <path d="M104,0 L22.2032571,0 C25.9728857,2.79138489 28.4452629,7.29334821 28.5049886,12.3981256 C28.5818743,18.9862652 24.6165771,24.6625946 18.9526629,27 L104,27 L104,0 Z" id="Fill-1" fill="#FF6600"></path>
                <path d="M0.0160457143,0 L0.0160457143,26.9981878 L13.3703502,27 C20.7641388,27 26.7589029,20.9559542 26.7589029,13.500453 C26.7589029,6.04495193 20.7641388,0.00181217175 13.3703502,0.00181217175 L0.0160457143,0 Z" id="Fill-4" fill="#C41230"></path>
                <path d="M70.03776,7.17165 C70.03776,7.566975 69.9053829,7.902675 69.6412971,8.17605 C69.3769886,8.449425 69.04872,8.585325 68.6556,8.585325 C68.2638171,8.585325 67.938,8.449425 67.6814914,8.17605 C67.4243143,7.902675 67.2961714,7.566975 67.2961714,7.17165 C67.2961714,6.774525 67.4243143,6.439275 67.6814914,6.166575 C67.938,5.893425 68.2638171,5.755725 68.6556,5.755725 C69.04872,5.755725 69.3769886,5.893425 69.6412971,6.166575 C69.9053829,6.439275 70.03776,6.774525 70.03776,7.17165" id="Fill-7" fill="#FEFEFE"></path>
                <path d="M56.9651829,15.771975 C56.6188629,15.771975 56.2342114,15.7938 55.8101143,15.837 C55.38468,15.88155 54.9817543,15.9657 54.6008914,16.089 C54.2180229,16.21275 53.9024571,16.393875 53.6501829,16.634175 C53.3988,16.873575 53.2731086,17.18925 53.2731086,17.581875 C53.2731086,18.01815 53.4170743,18.351825 53.7050057,18.584925 C53.9927143,18.81645 54.3087257,18.933675 54.6541543,18.933675 C54.95724,18.933675 55.2478457,18.87585 55.5295371,18.758625 C55.8101143,18.641625 56.0572629,18.510675 56.2725429,18.36555 C56.5326171,18.20625 56.7632743,18.01815 56.9651829,17.7999 L56.9651829,15.771975 Z M57.1809086,20.677875 L56.9856857,19.412475 L56.94312,19.412475 C56.8412743,19.51485 56.7019886,19.64895 56.5221429,19.816575 C56.3420743,19.9833 56.1263486,20.150475 55.8747429,20.317425 C55.6224686,20.48505 55.3303029,20.629725 54.9998057,20.753475 C54.6684171,20.876775 54.3015943,20.9391 53.8986686,20.9391 C53.5385314,20.9391 53.1783943,20.8662 52.8189257,20.720175 C52.4587886,20.575275 52.1365371,20.36445 51.84816,20.0886 C51.5597829,19.812525 51.32556,19.47165 51.1454914,19.064175 C50.96676,18.657375 50.8765029,18.19905 50.8765029,17.69055 C50.8765029,16.89135 51.0855429,16.259325 51.5025086,15.7938 C51.9192514,15.32985 52.4338286,14.976825 53.04624,14.736525 C53.6575371,14.497575 54.3163029,14.341425 55.0216457,14.267625 C55.7260971,14.1963 56.3750571,14.15895 56.9651829,14.15895 L56.9651829,13.9632 C56.9651829,13.265025 56.8312457,12.74235 56.5651543,12.3945 C56.2990629,12.0453 55.8268286,11.87115 55.1513486,11.87115 C54.8061429,11.87115 54.4638343,11.9112 54.1259829,11.991075 C53.7879086,12.0705 53.4819257,12.153975 53.2075886,12.24195 C52.8913543,12.343425 52.5815829,12.459075 52.2796114,12.5898 L51.6970629,11.02065 C52.0999886,10.81725 52.5312171,10.635225 52.9918629,10.475925 C53.3662629,10.33035 53.7941486,10.200075 54.2775257,10.0833 C54.75912,9.96675 55.2378171,9.90915 55.7120571,9.90915 C56.9061257,9.90915 57.8256343,10.239225 58.4650114,10.900275 C59.1057257,11.56155 59.42508,12.4881 59.42508,13.6797 L59.42508,20.677875 L57.1809086,20.677875 Z" id="Fill-9" fill="#FEFEFE"></path>
                <polygon id="Fill-11" fill="#FEFEFE" points="67.3706057 20.677875 69.9622114 20.677875 69.9622114 10.170825 67.3706057 10.170825"></polygon>
                <path d="M85.0806171,6.42165 C85.0806171,6.816975 84.9491314,7.152675 84.6843771,7.42605 C84.42096,7.699425 84.0920229,7.835325 83.6991257,7.835325 C83.3073429,7.835325 82.9813029,7.699425 82.7245714,7.42605 C82.4671714,7.152675 82.3376914,6.816975 82.3376914,6.42165 C82.3376914,6.024525 82.4671714,5.689275 82.7245714,5.416575 C82.9813029,5.143425 83.3073429,5.005725 83.6991257,5.005725 C84.0920229,5.005725 84.42096,5.143425 84.6843771,5.416575 C84.9491314,5.689275 85.0806171,6.024525 85.0806171,6.42165" id="Fill-13" fill="#FEFEFE"></path>
                <polygon id="Fill-14" fill="#FEFEFE" points="82.41324 20.677875 85.0048457 20.677875 85.0048457 10.170825 82.41324 10.170825"></polygon>
                <path d="M92.8124229,15.771975 C92.4672171,15.771975 92.0823429,15.7938 91.6582457,15.837 C91.2323657,15.88155 90.8298857,15.9657 90.4485771,16.089 C90.0672686,16.21275 89.74992,16.393875 89.4980914,16.634175 C89.2462629,16.873575 89.1205714,17.18925 89.1205714,17.581875 C89.1205714,18.01815 89.2645371,18.351825 89.5526914,18.584925 C89.8404,18.81645 90.1568571,18.933675 90.5029543,18.933675 C90.80448,18.933675 91.0962,18.87585 91.3761086,18.758625 C91.6582457,18.641625 91.9062857,18.510675 92.1224571,18.36555 C92.3814171,18.20625 92.6111829,18.01815 92.8124229,17.7999 L92.8124229,15.771975 Z M93.0281486,20.677875 L92.8338171,19.412475 L92.7916971,19.412475 C92.6902971,19.51485 92.5494514,19.64895 92.3704971,19.816575 C92.1910971,19.9833 91.9749257,20.150475 91.7219829,20.317425 C91.4706,20.48505 91.1782114,20.629725 90.8486057,20.753475 C90.5161029,20.876775 90.1490571,20.9391 89.7472457,20.9391 C89.3877771,20.9391 89.0271943,20.8662 88.66728,20.720175 C88.3075886,20.575275 87.9837771,20.36445 87.6949543,20.0886 C87.4076914,19.812525 87.1734686,19.47165 86.9934,19.064175 C86.8131086,18.657375 86.7241886,18.19905 86.7241886,17.69055 C86.7241886,16.89135 86.9330057,16.259325 87.3497486,15.7938 C87.7673829,15.32985 88.28352,14.976825 88.8945943,14.736525 C89.5052229,14.497575 90.1642114,14.341425 90.8695543,14.267625 C91.5748971,14.1963 92.2227429,14.15895 92.8124229,14.15895 L92.8124229,13.9632 C92.8124229,13.265025 92.6798229,12.74235 92.4137314,12.3945 C92.1469714,12.0453 91.67496,11.87115 90.9992571,11.87115 C90.6533829,11.87115 90.3112971,11.9112 89.973,11.991075 C89.6355943,12.0705 89.3289429,12.153975 89.05572,12.24195 C88.7388171,12.343425 88.4297143,12.459075 88.1281886,12.5898 L87.5445257,11.02065 C87.9478971,10.81725 88.3789029,10.635225 88.8402171,10.475925 C89.2141714,10.33035 89.6420571,10.200075 90.12432,10.0833 C90.6070286,9.96675 91.0857257,9.90915 91.5604114,9.90915 C92.7547029,9.90915 93.6726514,10.239225 94.3131429,10.900275 C94.9538571,11.56155 95.2741029,12.4881 95.2741029,13.6797 L95.2741029,20.677875 L93.0281486,20.677875 Z" id="Fill-15" fill="#FEFEFE"></path>
                <polygon id="Fill-16" fill="#FEFEFE" points="64.6069543 4.633575 62.0164629 4.633575 62.0155714 20.6709 64.60584 20.6709"></polygon>
                <path d="M48.9973714,12.693975 L43.7981143,12.696675 L43.7981143,14.901675 L46.3852629,14.901675 L46.3852629,18.36555 C46.24152,18.396375 46.0763829,18.424725 45.8891829,18.453525 C45.7311771,18.4821 45.5392971,18.5046 45.3171086,18.51855 C45.0938057,18.533625 44.8459886,18.540375 44.5714286,18.540375 C43.8955029,18.540375 43.2723943,18.409875 42.7047771,18.14865 C42.1360457,17.88675 41.6468743,17.527875 41.2368171,17.070225 C40.8265371,16.611675 40.5058457,16.062675 40.2758571,15.424125 C40.0460914,14.7849 39.9304286,14.079525 39.9304286,13.30935 C39.9304286,12.49485 40.0641429,11.75775 40.3300114,11.096925 C40.5956571,10.43565 40.9669371,9.872475 41.4414,9.4074 C41.9167543,8.9421 42.4743429,8.583225 43.1143886,8.32875 C43.7557714,8.0745 44.4432857,7.94715 45.1771543,7.94715 C45.5662629,7.94715 45.9226114,7.964475 46.2455314,8.0016 C46.56912,8.037825 46.8532629,8.078325 47.0984057,8.1213 C47.3722971,8.1789 47.6308114,8.230875 47.8755086,8.27385 L48.58776,6.225225 C48.25704,6.109125 47.8897714,6.006525 47.4864,5.920575 C47.1407486,5.847225 46.7277943,5.775225 46.2455314,5.701875 C45.7632686,5.629875 45.2199429,5.592975 44.6148857,5.592975 C43.5933086,5.592975 42.6256629,5.770725 41.7119486,6.12735 C40.7968971,6.482625 39.9950571,6.99495 39.3042,7.6641 C38.6135657,8.3319 38.0662286,9.138075 37.66308,10.0833 C37.2608229,11.027625 37.0586914,12.0894 37.0586914,13.265025 C37.0586914,14.4429 37.23876,15.503775 37.5982286,16.44765 C37.9581429,17.392425 38.4553371,18.19905 39.0882514,18.867525 C39.7211657,19.536 40.4659543,20.047875 41.3226171,20.404275 C42.17928,20.76045 43.0974514,20.9391 44.07624,20.9391 C44.67996,20.9391 45.2769943,20.8842 45.8675657,20.7753 C46.4576914,20.666175 46.9834114,20.5458 47.4433886,20.41395 C47.9905029,20.25645 48.5086457,20.080725 48.9984857,19.892625 L48.9973714,12.693975 Z" id="Fill-17" fill="#FEFEFE"></path>
                <path d="M80.4708171,19.66065 C80.0961943,19.907025 79.6932686,20.125275 79.2611486,20.3136 C78.8867486,20.474475 78.4548514,20.618925 77.9665714,20.749425 C77.4753943,20.88015 76.9652743,20.946075 76.4330914,20.946075 C75.82848,20.946075 75.2564057,20.821875 74.7170914,20.575275 C74.1766629,20.328 73.7050971,19.9833 73.3021714,19.540275 C72.8988,19.0968 72.57744,18.56265 72.3405429,17.937375 C72.1049829,17.313225 71.9855314,16.614375 71.9855314,15.845775 C71.9855314,15.0459 72.1154571,14.290575 72.3737486,13.578225 C72.6327086,12.86655 72.9957429,12.238125 73.4644114,11.693175 C73.9319657,11.147325 74.4935657,10.715775 75.1480971,10.39605 C75.80352,10.075425 76.5264686,9.91635 77.31828,9.91635 C77.6931257,9.91635 78.0443486,9.9483 78.3761829,10.01355 C78.7062343,10.0797 79.0088743,10.14855 79.2832114,10.220775 C79.5842914,10.308525 79.8800229,10.403025 80.1681771,10.504275 L79.4996057,12.270075 L79.0663714,12.161175 C78.9384514,12.13215 78.7828971,12.10335 78.6032743,12.0741 C78.42276,12.0453 78.15756,12.029775 77.94228,12.029775 C77.4678171,12.029775 76.9565829,12.121125 76.5529886,12.3036 C76.14984,12.485175 75.8046343,12.7392 75.5171486,13.0659 C75.2285486,13.39215 75.0023486,13.7787 74.8369886,14.221275 C74.67096,14.66475 74.5880571,15.1476 74.5880571,15.6705 C74.5880571,16.600425 74.8403314,17.348775 75.3442114,17.91555 C75.8485371,18.4821 76.5099771,18.766725 77.3300914,18.766725 C77.61936,18.766725 78.0414514,18.74445 78.3215829,18.701475 C78.6032743,18.657375 78.8510914,18.605625 79.0663714,18.547575 C79.3255543,18.489975 79.5555429,18.409875 79.7585657,18.30885 L80.4708171,19.66065 Z" id="Fill-18" fill="#FEFEFE"></path>
                <path d="M17.26608,7.00245 L17.2658571,7.0038 C17.2591714,7.008075 17.04768,7.144425 16.55784,7.296525 C15.98844,7.4718 15.0448629,7.665075 13.6116686,7.69095 C13.64064,6.25365 13.83408,5.3046 14.00724,4.736025 C14.1434057,4.291875 14.2653086,4.076775 14.2873714,4.040775 C14.2896,4.0374 14.2913829,4.034475 14.2913829,4.034475 L14.2875943,4.034475 L14.2875943,4.034025 C14.2875943,3.473325 13.8374229,3.018375 13.28184,3.018375 C12.7262571,3.018375 12.27564,3.473325 12.27564,4.034025 L12.27564,4.034475 L12.2702914,4.034475 C12.2702914,4.034475 12.2727429,4.0383 12.2767543,4.0455 C12.30528,4.09275 12.42384,4.30695 12.5553257,4.735575 C12.7282629,5.3028 12.9217029,6.25005 12.9500057,7.6905 C11.5136914,7.66305 10.5672171,7.4673 9.99826286,7.292025 C9.50931429,7.1397 9.29916,7.0038 9.29916,7.0038 L9.29916,7.008075 L9.29492571,7.00245 C8.73644571,7.00245 8.28337714,7.459875 8.28337714,8.023725 C8.28337714,8.58825 8.73644571,9.045 9.29492571,9.045 L9.29916,9.042525 L9.29916,9.04455 C9.29916,9.04455 9.50842286,8.90595 10.0009371,8.75475 C10.5669943,8.579475 11.5070057,8.385075 12.9344057,8.357625 C12.8597486,9.947925 12.5809543,10.863225 12.4086857,11.285325 C12.3019371,11.5371 12.0472114,12.02355 11.63604,12.1446 L11.6376,12.147075 L13.2854057,24.143625 L14.9238514,12.147075 L14.9256343,12.1446 C14.5124571,12.023325 14.2572857,11.5335 14.1503143,11.28105 C14.1434057,11.2653 14.1376114,11.2509 14.1313714,11.236725 L14.1313714,11.2365 C13.9575429,10.796175 13.6963543,9.8937 13.6261543,8.3583 C15.0511029,8.3862 15.99312,8.580375 16.5611829,8.75565 C17.04768,8.90505 17.25984,9.0405 17.2658571,9.0441 L17.26608,9.045 C17.8250057,9.045 18.2774057,8.58825 18.2774057,8.023725 C18.2774057,7.459875 17.8250057,7.00245 17.26608,7.00245" id="Fill-19" fill="#FEFEFE"></path>
            </g>
        </g>
    </g>
</svg>