<?xml version="1.0" encoding="UTF-8" standalone="no"?>
<svg width="144px" height="144px" viewBox="0 0 144 144" version="1.1" xmlns="http://www.w3.org/2000/svg" xmlns:xlink="http://www.w3.org/1999/xlink">
    <!-- Generator: sketchtool 39.1 (31720) - http://www.bohemiancoding.com/sketch -->
    <title>A3204537-AC0C-444C-AF9F-D17AD7982ADB</title>
    <desc>Created with sketchtool.</desc>
    <defs></defs>
    <g id="Page-1" stroke="none" stroke-width="1" fill="none" fill-rule="evenodd">
        <g id="tarjetas.pagar-5.1280" transform="translate(-687.000000, -94.000000)" fill="#003973">
            <g id="Group" transform="translate(503.000000, 94.000000)">
                <path d="M256,144 C216.299,144 184,111.701 184,72 C184,32.299 216.299,0 256,0 C295.701,0 328,32.299 328,72 C328,111.701 295.701,144 256,144 Z M256,4 C218.505,4 188,34.505 188,72 C188,109.495 218.505,140 256,140 C293.495,140 324,109.495 324,72 C324,34.505 293.495,4 256,4 Z M242,99.8286 L219.586,77.4136 L222.414,74.5856 L242,94.1716 L289.586,46.5856 L292.414,49.4136 L242,99.8286 Z" id="check"></path>
            </g>
        </g>
    </g>
</svg>