<?xml version="1.0" encoding="UTF-8" standalone="no"?>
<svg  viewBox="0 0 165 21" version="1.1" xmlns="http://www.w3.org/2000/svg" xmlns:xlink="http://www.w3.org/1999/xlink">
    <!-- Generator: sketchtool 39.1 (31720) - http://www.bohemiancoding.com/sketch -->
    <title>4B46F89E-C6A7-492C-BA5D-21A64AB4FAB0</title>
    <desc>Created with sketchtool.</desc>
    <defs></defs>
    <g id="Page-1" stroke="none" stroke-width="1" fill="none" fill-rule="evenodd">
        <g id="Style-guide" transform="translate(-904.000000, -32.000000)" fill="#003973">
            <g id="Eminent" transform="translate(904.000000, 32.000000)">
                <path d="M163.581904,7.01424667 L159.701111,7.01424667 L158.735186,7.01424667 L155.02169,7.01424667 C154.643135,7.01424667 154.446531,7.23527359 154.446531,7.55154969 C154.446531,7.86416235 154.643135,8.09251614 155.02169,8.09251614 L158.735186,8.09251614 L158.735186,20.0389603 C158.735186,20.4419375 158.976973,20.6568588 159.287143,20.6568588 C159.632727,20.6568588 159.87085,20.4419375 159.87085,20.0389603 L159.87085,8.20974589 C159.87085,8.12792929 159.909926,8.09251614 159.990522,8.09251614 L163.581904,8.09251614 C163.961679,8.09251614 164.164389,7.86416235 164.164389,7.55154969 C164.164389,7.23527359 163.961679,7.01424667 163.581904,7.01424667 L163.581904,7.01424667 Z M91.528348,5.38524161 L92.8606152,4.04808978 C93.1292667,3.78432285 93.1133919,3.4863639 92.8850381,3.26655812 C92.6640112,3.02965634 92.3672734,3.01988719 92.0986219,3.29098099 L90.7651335,4.6220271 C90.4940397,4.88945746 90.5147991,5.18253184 90.735826,5.40966448 C90.9592952,5.63313369 91.2596965,5.65267198 91.528348,5.38524161 L91.528348,5.38524161 Z M94.5140431,19.5016573 L88.1042624,19.5016573 C88.0297726,19.5016573 87.9943595,19.4589173 87.9943595,19.3807641 L87.9943595,14.3545386 C87.9943595,14.272722 88.0297726,14.2336454 88.1042624,14.2336454 L91.0960633,14.2336454 C91.4758388,14.2336454 91.6724429,14.0138396 91.6724429,13.6987847 C91.6724429,13.3751817 91.4758388,13.1529337 91.0960633,13.1529337 L88.1042624,13.1529337 C88.0297726,13.1529337 87.9943595,13.1199628 87.9943595,13.0344828 L88.0163401,7.01424667 L87.4130953,7.01424667 C87.0736175,7.01424667 86.8538117,7.21451416 86.8538117,7.55154969 L86.8538117,20.0389603 C86.8538117,20.3784381 87.0736175,20.5799267 87.4130953,20.5799267 L94.5140431,20.5799267 C94.8938187,20.5799267 95.0953073,20.360121 95.0953073,20.0389603 C95.0953073,19.7190208 94.8938187,19.5016573 94.5140431,19.5016573 L94.5140431,19.5016573 Z M88.8222946,8.09251614 L94.5140431,8.09251614 C94.8938187,8.09251614 95.0953073,7.86416235 95.0953073,7.55154969 C95.0953073,7.23527359 94.8938187,7.01424667 94.5140431,7.01424667 L88.8222946,7.01424667 L88.8222946,8.09251614 Z M54.6095249,17.9117288 C54.3249985,17.9837762 54.0062802,18.0594871 53.6350526,18.109554 C53.2735942,18.1645054 52.7253009,18.1925917 52.3528522,18.1925917 C51.2855731,18.1925917 50.4246671,17.8323545 49.7689132,17.0984474 C49.110717,16.370646 48.7858929,15.4022795 48.7858929,14.212886 C48.7858929,13.5278246 48.8982381,12.9148107 49.1082747,12.3469791 C49.3207536,11.7705995 49.6199337,11.2735942 49.9960458,10.8522998 C50.3660522,10.4346688 50.8178752,10.1049602 51.3380822,9.87782753 C51.8668372,9.63359888 52.5286969,9.51881142 53.1465953,9.51881142 C53.4237948,9.51881142 53.7693784,9.53712857 54.0062802,9.57986858 C54.2419608,9.61161831 54.4434494,9.64947375 54.6095249,9.69099261 L55.1663662,9.83508752 L56.0394836,7.55521312 C55.6645927,7.43187765 55.2787114,7.30732104 54.891609,7.19375472 C54.5277083,7.10094784 54.1393848,7.01180438 53.7107635,6.9189975 C53.2809211,6.84328662 52.8254347,6.79810432 52.3369774,6.79810432 C51.3063325,6.79810432 50.3623888,7.00691981 49.5185788,7.41966622 C48.6613363,7.82752806 47.9335349,8.3880328 47.3229633,9.08896901 C46.714834,9.78746293 46.2471361,10.5995232 45.9064372,11.5153806 C45.5742862,12.4324591 45.4045473,13.3971623 45.4045473,14.4363552 C45.4045473,15.42426 45.5559691,16.3254637 45.8649183,17.1240914 C46.1726464,17.9300459 46.5866139,18.6102227 47.115369,19.1951503 C47.6380183,19.7580973 48.2522533,20.207478 48.9531895,20.5249753 C49.6541257,20.8388091 50.3978019,21 51.1866605,21 C51.8753852,21 52.5348026,20.9096354 53.1759028,20.7447811 C53.8133395,20.5799267 54.3738443,20.3967552 54.8598593,20.1867186 C55.4240274,19.9437111 55.940571,19.6640693 56.4278072,19.3441298 L55.5119498,17.6088853 C55.2384137,17.734663 54.9453393,17.8396813 54.6095249,17.9117288 L54.6095249,17.9117288 Z M8.75803919,13.2176542 L12.1235099,13.2176542 L12.1235099,17.674827 C11.9391173,17.7163459 11.7241961,17.7566436 11.4775251,17.7920568 C11.2711519,17.8323545 11.0281444,17.8592196 10.7350701,17.8787579 C10.444438,17.8909694 10.1196139,17.9068442 9.76914578,17.9068442 C8.88748037,17.9068442 8.07419899,17.734663 7.34029191,17.3988486 C6.60394255,17.0642554 5.96650579,16.6014421 5.42920277,16.0067454 C4.89434204,15.4169332 4.4779322,14.7111124 4.18363668,13.8905042 C3.88689888,13.0747805 3.73181369,12.1540385 3.73181369,11.1710182 C3.73181369,10.1196139 3.90521603,9.16956446 4.24957841,8.31720649 C4.59516195,7.46973309 5.08484038,6.74071059 5.69907542,6.14845613 C6.31575275,5.54276909 7.04111182,5.08484038 7.8739315,4.757574 C8.70064546,4.4327499 9.59818573,4.26423213 10.5506774,4.26423213 C11.058673,4.26423213 11.5178229,4.29109728 11.9391173,4.33261615 C12.3616328,4.38146188 12.7328604,4.4327499 13.0527999,4.48892249 C13.4020469,4.56707565 13.7403035,4.63423853 14.0590219,4.68674769 L14.9834273,2.04907833 C14.5523638,1.90132 14.0761179,1.76699424 13.5583532,1.65098564 C13.1053091,1.55695761 12.5667849,1.46659301 11.9391173,1.37134384 C11.3151131,1.27609467 10.6056289,1.2260278 9.8204338,1.2260278 C8.49793569,1.2260278 7.23771588,1.45926615 6.04343781,1.92452172 C4.85892888,2.37756585 3.81485143,3.03209862 2.91486887,3.9015526 C2.02221318,4.76245857 1.31028668,5.79798802 0.783973949,7.01668896 C0.26132465,8.22806303 0,9.59696459 0,11.1111822 C0,12.6266209 0.230796069,13.9991859 0.702157353,15.2117811 C1.16863406,16.4231552 1.81339769,17.4562424 2.63766936,18.3269175 C3.46316218,19.1853812 4.42786533,19.8435774 5.53788451,20.3063906 C6.65278828,20.7618771 7.84828749,20.9877886 9.1256033,20.9877886 C9.90347154,20.9877886 10.6788975,20.9169623 11.4531023,20.7801942 C12.2175379,20.642205 12.900157,20.4834564 13.5009595,20.3186021 C14.212886,20.1122289 14.8820725,19.8863174 15.5219515,19.6457522 L15.5219515,10.3723905 L8.75803919,10.3821597 L8.75803919,13.2176542 Z M32.442112,20.6519742 L35.8112461,20.6519742 L35.8112461,0 L32.442112,0 L32.442112,20.6519742 Z M72.4748503,14.3362214 C72.0266907,14.3362214 71.5272431,14.3655289 70.9752864,14.4168169 C70.4184451,14.4754318 69.9019015,14.5865558 69.4073385,14.7489678 C68.9078909,14.9064953 68.4988079,15.1385125 68.1678781,15.4474618 C67.8467175,15.7576321 67.6818631,16.1630517 67.6818631,16.668605 C67.6818631,17.2303309 67.8650346,17.6589521 68.2362621,17.9617957 C68.6123743,18.2597546 69.0226784,18.4075129 69.4757225,18.4075129 C69.8677095,18.4075129 70.247485,18.3354655 70.6077223,18.1816014 C70.9752864,18.0289585 71.2988893,17.8702099 71.5821946,17.674827 C71.918009,17.4708961 72.217189,17.2303309 72.4748503,16.9519102 L72.4748503,14.3362214 Z M74.4274583,8.0632087 C75.2578357,8.92045124 75.6779089,10.1074025 75.6779089,11.6460429 L75.6779089,20.6519742 L72.7557132,20.6519742 L72.5041577,19.0327383 L72.4479851,19.0327383 C72.3173228,19.158516 72.1292667,19.3355818 71.9033552,19.5431761 C71.66279,19.7580973 71.3880328,19.9730185 71.0595453,20.1916032 C70.7322789,20.4089667 70.3500611,20.5970227 69.9238821,20.7521079 C69.4903762,20.9096354 69.0165727,20.9877886 68.4914811,20.9877886 C68.0262255,20.9877886 67.5597488,20.8998663 67.0896087,20.7093679 C66.6231319,20.5249753 66.1993952,20.2538815 65.8257254,19.8936442 C65.4496133,19.5407338 65.1431064,19.09868 64.9074257,18.5723673 C64.6754085,18.0594871 64.5630633,17.4562424 64.5630633,16.8078153 C64.5630633,15.782055 64.8341571,14.9724371 65.3775659,14.3655289 C65.9185323,13.7683898 66.5901611,13.3104611 67.3839042,13.0015119 C68.1776473,12.6950049 69.0312264,12.4971797 69.9483049,12.4043729 C70.8641624,12.311566 71.714078,12.2590568 72.4748503,12.2590568 L72.4748503,12.0062802 C72.4748503,11.1111822 72.3087748,10.4395534 71.960749,9.99139385 C71.6127231,9.53712857 70.9984881,9.31854393 70.1229284,9.31854393 C69.6735477,9.31854393 69.2278304,9.36616852 68.7833343,9.46874455 C68.3486073,9.57376287 67.9468512,9.67511775 67.5914985,9.79601093 C67.177531,9.9278944 66.776996,10.0744316 66.3874513,10.2405071 L65.6254579,8.2158516 C66.1554341,7.95696924 66.7110543,7.72495203 67.314299,7.52468454 C67.7990929,7.33784962 68.3534919,7.16444729 68.9811595,7.01668896 C69.6124906,6.86160377 70.2291679,6.78589289 70.8458452,6.78589289 C72.3979182,6.78589289 73.5995232,7.21695645 74.4274583,8.0632087 L74.4274583,8.0632087 Z M58.9519102,20.6519742 L62.3295924,20.6519742 L62.3295924,7.12659185 L58.9519102,7.12659185 L58.9519102,20.6519742 Z M60.6260976,0.475024714 C60.1217654,0.475024714 59.6968076,0.658196197 59.3622143,1.00622202 C59.0288422,1.35302669 58.8591033,1.78897482 58.8591033,2.30185497 C58.8591033,2.80985056 59.0288422,3.24579869 59.3622143,3.59870908 C59.6968076,3.9467349 60.1217654,4.11891609 60.6260976,4.11891609 C61.1389777,4.11891609 61.5688201,3.9467349 61.9070768,3.59870908 C62.2538815,3.24579869 62.4236204,2.80985056 62.4236204,2.30185497 C62.4236204,1.78897482 62.2538815,1.35302669 61.9070768,1.00622202 C61.5688201,0.658196197 61.1389777,0.475024714 60.6260976,0.475024714 L60.6260976,0.475024714 Z M39.4014072,20.6519742 L42.7742048,20.6519742 L42.7742048,7.12659185 L39.4014072,7.12659185 L39.4014072,20.6519742 Z M25.8784672,14.3362214 C25.425423,14.3362214 24.9247543,14.3655289 24.3752399,14.4168169 C23.8208408,14.4754318 23.2994127,14.5865558 22.8024074,14.7489678 C22.3054021,14.9064953 21.8963191,15.1385125 21.5690527,15.4474618 C21.2405652,15.7576321 21.0781532,16.1630517 21.0781532,16.668605 C21.0781532,17.2303309 21.2637669,17.6589521 21.6374368,17.9617957 C22.01477,18.2597546 22.4226319,18.4075129 22.8732337,18.4075129 C23.2664418,18.4075129 23.6462174,18.3354655 24.0113392,18.1816014 C24.3752399,18.0289585 24.700064,17.8702099 24.9711578,17.674827 C25.3155201,17.4708961 25.6134791,17.2303309 25.8784672,16.9519102 L25.8784672,14.3362214 Z M27.8237483,8.0632087 C28.6553469,8.92045124 29.0766413,10.1074025 29.0766413,11.6460429 L29.0766413,20.6519742 L26.1568878,20.6519742 L25.90289,19.0327383 L25.8467175,19.0327383 C25.7160551,19.158516 25.5316625,19.3355818 25.305751,19.5431761 C25.0676281,19.7580973 24.7892074,19.9730185 24.4546142,20.1916032 C24.1297901,20.4089667 23.7500145,20.5970227 23.3226144,20.7521079 C22.892772,20.9096354 22.4116416,20.9877886 21.8877711,20.9877886 C21.4237367,20.9877886 20.9535966,20.8998663 20.4810141,20.7093679 C20.0145374,20.5249753 19.5969064,20.2538815 19.2256789,19.8936442 C18.8532302,19.5407338 18.5455021,19.09868 18.3134849,18.5723673 C18.0826888,18.0594871 17.9630168,17.4562424 17.9630168,16.8078153 C17.9630168,15.782055 18.2328895,14.9724371 18.7762982,14.3655289 C19.3172646,13.7683898 19.9840088,13.3104611 20.7814154,13.0015119 C21.5837065,12.6950049 22.4299587,12.4971797 23.3507007,12.4043729 C24.265337,12.311566 25.1079258,12.2590568 25.8784672,12.2590568 L25.8784672,12.0062802 C25.8784672,11.1111822 25.7014014,10.4395534 25.3631447,9.99139385 C25.0077921,9.53712857 24.3947782,9.31854393 23.5216608,9.31854393 C23.0698378,9.31854393 22.6228993,9.36616852 22.1869512,9.46874455 C21.7461185,9.57376287 21.3541315,9.67511775 20.9902309,9.79601093 C20.5787056,9.9278944 20.1806129,10.0744316 19.7849625,10.2405071 L19.0290748,8.2158516 C19.550503,7.95696924 20.1122289,7.72495203 20.7093679,7.52468454 C21.1966041,7.33784962 21.7534454,7.16444729 22.3835553,7.01668896 C23.0087806,6.86160377 23.6315636,6.78589289 24.2470198,6.78589289 C25.7966506,6.78589289 26.9958132,7.21695645 27.8237483,8.0632087 L27.8237483,8.0632087 Z M41.07071,0.475024714 C40.5663779,0.475024714 40.1426412,0.658196197 39.8117113,1.00622202 C39.4710124,1.35302669 39.3073792,1.78897482 39.3073792,2.30185497 C39.3073792,2.80985056 39.4710124,3.24579869 39.8117113,3.59870908 C40.1426412,3.9467349 40.5663779,4.11891609 41.07071,4.11891609 C41.5848113,4.11891609 42.0109903,3.9467349 42.3516892,3.59870908 C42.6960516,3.24579869 42.869454,2.80985056 42.869454,2.30185497 C42.869454,1.78897482 42.6960516,1.35302669 42.3516892,1.00622202 C42.0109903,0.658196197 41.5848113,0.475024714 41.07071,0.475024714 L41.07071,0.475024714 Z M151.661104,7.03134268 C151.317962,7.03134268 151.100599,7.25725417 151.100599,7.65046229 L151.100599,18.3501192 L151.040763,18.3501192 L144.53207,7.56742455 C144.290283,7.15223586 144.097343,6.94464151 143.718788,6.94464151 C143.255975,6.94464151 143.019073,7.21207187 143.019073,7.6675583 L143.019073,20.0243066 C143.019073,20.4211781 143.255975,20.642205 143.579578,20.642205 C143.917835,20.642205 144.154736,20.4211781 144.154736,20.0243066 L144.154736,9.22207362 L144.229226,9.22207362 L150.702506,20.0243066 C150.96261,20.4443798 151.160435,20.642205 151.540211,20.642205 C151.973716,20.642205 152.23382,20.3845438 152.23382,19.9241728 L152.23382,7.65046229 C152.23382,7.25725417 151.992033,7.03134268 151.661104,7.03134268 L151.661104,7.03134268 Z M128.055184,6.94464151 C127.716927,6.94464151 127.499564,7.16688957 127.499564,7.56742455 L127.499564,18.3501192 L127.434843,18.3501192 L120.933477,7.56742455 C120.692912,7.15223586 120.493865,6.94464151 120.11409,6.94464151 C119.659824,6.94464151 119.422923,7.21207187 119.422923,7.6675583 L119.422923,20.0243066 C119.422923,20.4211781 119.659824,20.642205 119.972437,20.642205 C120.314357,20.642205 120.554922,20.4211781 120.554922,20.0243066 L120.554922,9.22207362 L120.634297,9.22207362 L127.10025,20.0243066 C127.357911,20.4443798 127.5594,20.642205 127.935512,20.642205 C128.376345,20.642205 128.634006,20.3845438 128.634006,19.9241728 L128.634006,7.56742455 C128.634006,7.16688957 128.395883,6.94464151 128.055184,6.94464151 L128.055184,6.94464151 Z M114.49561,6.94464151 C114.174449,6.94464151 113.931442,7.16688957 113.931442,7.56742455 L113.931442,20.0243066 C113.931442,20.4211781 114.174449,20.642205 114.49561,20.642205 C114.831424,20.642205 115.069547,20.4211781 115.069547,20.0243066 L115.069547,7.56742455 C115.069547,7.16688957 114.831424,6.94464151 114.49561,6.94464151 L114.49561,6.94464151 Z M108.863697,6.94464151 C108.529104,6.94464151 108.288539,7.15223586 108.110252,7.56742455 L103.971797,16.9189393 L103.889981,16.9189393 L99.6916904,7.56742455 C99.5121824,7.15223586 99.2728383,6.94464151 98.9333605,6.94464151 C98.4974123,6.94464151 98.255626,7.21207187 98.255626,7.6675583 L98.255626,20.0243066 C98.255626,20.4211781 98.4974123,20.642205 98.8112461,20.642205 C99.1543874,20.642205 99.3925103,20.4211781 99.3925103,20.0243066 L99.3925103,9.79601093 L99.4902018,9.79601093 L103.156074,17.9324882 C103.411293,18.4881084 103.56882,18.6077804 103.909519,18.6077804 C104.228237,18.6077804 104.388207,18.4881084 104.643426,17.9324882 L108.327615,9.79601093 L108.40699,9.79601093 L108.40699,20.0243066 C108.40699,20.4211781 108.646334,20.642205 108.965052,20.642205 C109.302088,20.642205 109.542653,20.4211781 109.542653,20.0243066 L109.542653,7.6675583 C109.542653,7.21207187 109.302088,6.94464151 108.863697,6.94464151 L108.863697,6.94464151 Z M140.535268,20.0511717 C140.535268,20.3759958 140.333779,20.5945805 139.955225,20.5945805 L132.853056,20.5945805 C132.51602,20.5945805 132.298657,20.3967552 132.298657,20.0511717 L132.298657,7.57230912 C132.298657,7.23527359 132.51602,7.02890039 132.853056,7.02890039 L133.155899,7.02890039 L133.458743,7.02890039 L139.955225,7.02890039 C140.333779,7.02890039 140.535268,7.2523696 140.535268,7.57230912 C140.535268,7.88980636 140.333779,8.10716986 139.955225,8.10716986 L133.455079,8.10716986 L133.433099,13.0552422 C133.433099,13.1321742 133.474618,13.1724719 133.553992,13.1724719 L136.53236,13.1724719 C136.914578,13.1724719 137.109961,13.3934989 137.109961,13.7134384 C137.109961,14.0309356 136.914578,14.2507414 136.53236,14.2507414 L133.553992,14.2507414 C133.474618,14.2507414 133.433099,14.2885968 133.433099,14.3691923 L133.433099,19.3978601 C133.433099,19.4784555 133.474618,19.516311 133.553992,19.516311 L139.955225,19.516311 C140.333779,19.516311 140.535268,19.7336745 140.535268,20.0511717 L140.535268,20.0511717 Z" id="Galicia-EMINENT"></path>
            </g>
        </g>
    </g>
</svg>